<?xml version="1.0" encoding="UTF-8" standalone="no"?>
<!-- Created with Inkscape (http://www.inkscape.org/) -->

<svg
   version="1.1"
   id="svg1"
   width="535"
   height="535"
   viewBox="0 0 535 535"
   xmlns="http://www.w3.org/2000/svg"
   xmlns:svg="http://www.w3.org/2000/svg">
  <defs
     id="defs1" />
  <g
     id="g1">
    <g
       id="g2">
      <path
         style="fill:#010101"
         d="M 252.5,522.34818 C 206.96856,519.42571 162.10628,503.74571 124,477.43561 77.997051,445.67333 42.112028,398.36138 25.521633,347.59861 18.594115,326.40202 15.669926,312.91286 13.499963,292.14319 10.57644,264.16086 12.357393,235.78432 18.718148,209 c 1.904341,-8.01894 6.10276,-22.80221 7.241946,-25.5 0.464493,-1.1 1.851401,-4.925 3.082019,-8.5 3.344019,-9.71453 15.996212,-35.2719 22.524808,-45.5 C 72.510058,96.689186 102.93839,66.804567 135.5,47.066684 146.7707,40.234722 169.55987,29.546337 182.31513,25.109848 212.93862,14.458497 243.08746,9.7294028 275,10.571461 c 21.78693,0.57488 38.78069,2.935761 58.5,8.12719 38.50181,10.136231 71.09296,27.106091 101.57954,52.89137 14.77836,12.499401 32.96096,32.736589 44.84286,49.909979 7.67481,11.09271 18.17173,30.03784 23.27094,42 4.49573,10.5465 12.21327,33.16113 13.82115,40.5 5.56305,25.39161 7.48636,41.58475 7.48267,63 -0.0143,83.26611 -39.91581,159.37993 -109.70477,209.26667 -31.59797,22.58695 -72.17275,38.66352 -111.38354,44.13248 -11.11376,1.5501 -39.93382,2.65347 -50.90885,1.94903 z m -11.76694,-35.92807 c 8.49285,-1.75425 14.90829,-4.69012 23.5259,-10.76605 4.94125,-3.48388 6.64512,-4.11624 12,-4.45357 5.45966,-0.34392 7.61824,0.13439 17.24104,3.82038 13.53926,5.18618 15.389,5.7426 23.36387,7.02808 8.17517,1.31778 18.7296,-0.094 27.77525,-3.7152 8.67846,-3.47422 18.60044,-13.01834 22.69817,-21.83375 6.38543,-13.73692 5.30353,-12.57798 16.16271,-17.31353 5.5,-2.39848 12.40007,-6.16458 15.33349,-8.3691 5.97036,-4.48685 12.22949,-13.39903 14.09847,-20.07435 1.22959,-4.39167 0.99658,-15.85795 -0.45843,-22.55963 -0.59595,-2.74486 -0.28634,-3.7792 1.79596,-6 1.38383,-1.47586 4.08564,-5.16538 6.00402,-8.19892 9.27185,-14.66158 9.4977,-29.25669 0.72706,-46.98447 -4.60227,-9.30239 -8.77741,-20.85452 -13.01103,-36 -6.69442,-23.94879 -9.02404,-37.85835 -12.47751,-74.5 -3.10402,-32.93385 -11.49387,-63.2702 -24.18902,-87.46363 C 352.15839,92.513907 314.36702,65.826 275.02623,61.032492 c -22.90097,-2.790386 -47.97602,0.659204 -68.06122,9.363224 -16.8061,7.283005 -36.48377,23.095665 -47.91065,38.500224 -5.91762,7.97753 -12.66152,21.65039 -16.58246,33.61997 -5.87891,17.94672 -7.50073,29.94017 -10.47782,77.48409 -1.74078,27.80025 -5.428,44.69822 -13.45849,61.67821 -5.62055,11.88433 -8.85444,16.49079 -20.890907,29.75776 C 84.901428,325.48197 83.5,328.46066 83.5,341.5 c 0,9.3768 0.211834,10.42216 3.399153,16.77412 1.869535,3.72577 6.027383,9.80077 9.239664,13.5 10.448483,12.03238 11.168933,13.36928 9.848063,18.2746 -0.62963,2.33825 -1.14477,7.77831 -1.14477,12.08901 0,10.26591 2.92965,16.89267 10.92093,24.70273 10.09135,9.8625 21.07345,14.3156 38.50668,15.61394 17.125,1.2754 22.15635,4.0924 30.70921,17.1938 7.0994,10.87498 14.71876,17.97591 24.44503,22.78175 10.87981,5.37581 19.36524,6.45723 31.3091,3.99016 z m -20.70882,-9.95863 C 208.87651,473.33436 199.50864,465.67216 192.56268,454 c -8.8469,-14.86654 -16.42192,-19.18654 -36.77938,-20.97511 -29.66397,-2.60622 -44.71549,-16.73475 -40.77805,-38.27743 2.25943,-12.36186 1.96513,-13.33323 -7.11288,-23.4769 -8.466251,-9.4601 -11.441175,-13.9943 -13.825459,-21.07194 -2.484836,-7.37612 -2.55104,-9.72546 -0.475275,-16.86584 1.33234,-4.58309 3.098877,-7.0698 10.843544,-15.26419 25.55173,-27.03551 35.08706,-53.16834 37.60758,-103.06859 2.11486,-41.86911 5.44088,-61.57146 13.51134,-80.03706 17.65149,-40.387457 56.92734,-64.974449 103.76826,-64.959745 23.31773,0.0073 44.94061,6.810332 66.08389,20.791373 9.0456,5.981424 23.83792,20.814172 29.97587,30.057812 17.89103,26.94353 29.03097,65.50437 32.10972,111.14762 1.28832,19.09977 6.40399,45.83927 13.08562,68.39828 3.60797,12.18149 6.06423,18.58949 12.01019,31.33264 8.42798,18.06254 7.13739,28.41584 -5.49546,44.08531 -5.61056,6.95921 -5.92843,8.4798 -3.59219,17.18377 1.88071,7.00683 1.86661,9.40249 -0.0942,16.00531 -2.3684,7.97528 -11.32576,16.50271 -21.40578,20.37834 -4.125,1.58601 -9.81116,4.36902 -12.63592,6.18447 -4.60175,2.95751 -5.4282,4.06169 -7.94613,10.61635 -1.54562,4.02354 -4.16715,9.25437 -5.82563,11.62406 -4.29104,6.13117 -13.0815,11.68753 -21.53051,13.60922 -12.50078,2.84324 -19.2839,1.83815 -38.01786,-5.63331 -9.20412,-3.67077 -11.41919,-4.17194 -18.5,-4.18566 -8.49588,-0.0165 -12.88726,1.51312 -20.29954,7.0706 -1.79058,1.34251 -6.17842,3.80869 -9.75076,5.48039 -8.05352,3.76869 -18.99343,4.68935 -27.46941,2.31171 z m 20.4141,-9.89289 c 2.6159,-0.78727 6.59201,-2.69977 8.83578,-4.25 8.08853,-5.58839 22.75355,-31.77737 33.21659,-59.31859 4.65363,-12.24949 5.75206,-15.56266 11.01465,-33.22336 4.43815,-14.89394 6.50172,-12.62873 4.02645,4.41989 -3.46955,23.89677 -11.71349,48.38845 -23.45843,69.69196 -2.24036,4.06367 -4.07338,7.46919 -4.07338,7.56782 0,0.0986 3.7125,0.23064 8.25,0.29334 6.67173,0.0922 9.8761,0.72794 16.75,3.32325 4.675,1.76509 11.425,4.31616 15,5.66903 5.60827,2.12232 7.68263,2.39558 15.12042,1.99186 17.70298,-0.96092 25.79318,-9.32468 29.31923,-30.31062 0.8246,-4.90774 3.09034,-25.34817 5.03498,-45.42317 3.57875,-36.94436 5.86927,-55.67723 6.93854,-56.74651 0.32276,-0.32275 0.92433,-0.24859 1.33683,0.16481 1.41595,1.41904 0.54862,61.30623 -1.1369,78.50017 -0.88522,9.03016 -1.49781,16.52215 -1.3613,16.64888 0.13651,0.12672 4.72407,-1.74405 10.19458,-4.15728 14.87615,-6.56238 20.71459,-13.36833 19.06578,-22.22525 -0.37729,-2.02665 -2.43483,-9.67409 -4.57232,-16.99431 -8.58228,-29.39147 -10.8904,-50.42441 -10.91932,-99.50312 -0.0113,-19.14693 -0.49738,-41.42193 -1.08022,-49.5 C 371.76647,147.61822 341.0968,98.192226 284.566,82.709172 277.57033,80.793148 274.11147,80.509547 258.5,80.571946 c -16.24669,0.06494 -18.95297,0.331362 -27.78349,2.735191 -29.40164,8.003668 -50.90508,24.996383 -63.51658,50.192863 -9.75462,19.48875 -12.99241,35.9796 -15.2162,77.5 -1.62872,30.40983 -3.11685,41.5436 -7.6854,57.5 -6.10113,21.30923 -14.23585,35.69902 -30.22103,53.45903 -8.93842,9.93086 -10.93141,12.72713 -11.46954,16.09245 -1.2703,7.94398 1.70399,14.1655 12.88311,26.94852 3.12644,3.575 6.45812,7.9934 7.40373,9.81866 l 1.71929,3.31867 4.44305,-6.29378 c 15.07548,-21.35506 27.023,-45.83852 38.67109,-79.2467 3.7014,-10.61609 6.09656,-13.52052 5.44014,-6.59685 -0.1825,1.925 -1.45933,8.9 -2.8374,15.5 -5.2722,25.25021 -18.67367,55.40534 -33.77576,76 -11.26077,15.35627 -11.83408,16.34899 -12.31153,21.31784 -0.66908,6.96328 2.21491,13.02542 8.13416,17.09797 6.41608,4.41438 11.50116,5.9928 23.09311,7.16812 23.82399,2.41556 33.69743,7.79738 44.11147,24.04434 6.30889,9.84251 12.88354,16.14698 19.48036,18.67982 6.42863,2.46828 14.72098,2.7633 21.37576,0.7605 z m -51.90976,-53.52235 c -0.32421,-0.52457 2.96276,-8.73707 7.30436,-18.25 4.3416,-9.51293 11.3833,-26.07124 15.64822,-36.79624 4.26492,-10.725 8.22233,-20.08157 8.79424,-20.79238 2.22786,-2.76893 2.68814,0.76387 1.15391,8.85666 -4.1696,21.99395 -14.98688,47.09813 -27.22644,63.18572 -3.68789,4.84733 -4.63364,5.48006 -5.67429,3.79624 z M 286.4524,216.61693 c -3.78831,-1.67834 -6.32398,-5.45813 -8.07651,-12.03927 -2.36577,-8.88403 -1.11893,-15.98847 3.64146,-20.74886 6.35822,-6.35821 14.63844,-1.5074 17.69505,10.3663 3.7938,14.73739 -3.34772,26.81326 -13.26,22.42183 z m 59.37949,-14.32547 c -9.38108,-5.82011 -10.5325,-28.2922 -1.68408,-32.8679 11.92143,-6.1648 22.20001,23.86488 11.14494,32.5608 -3.08989,2.43051 -5.89168,2.52145 -9.46086,0.3071 z m 59.84927,157.83984 c 3.57533,-7.45681 2.87664,-12.68113 -3.70959,-27.73781 C 399.11016,325.85207 394.81399,314.65 392.42451,307.5 l -4.3445,-13 -0.0312,6.5 c -0.0969,20.17755 4.07737,55.10671 8.10687,67.83552 l 1.0559,3.33552 2.94774,-3.33552 c 1.62125,-1.83454 4.10609,-5.75144 5.52187,-8.70422 z"
         id="path2" />
    </g>
  </g>
</svg>
