<?xml version="1.0" encoding="UTF-8" standalone="no"?>
<!-- Created with Inkscape (http://www.inkscape.org/) -->

<svg
   version="1.1"
   id="svg1"
   width="752"
   height="752"
   viewBox="0 0 752 752"
   xmlns="http://www.w3.org/2000/svg"
   xmlns:svg="http://www.w3.org/2000/svg">
  <defs
     id="defs1" />
  <g
     id="g1">
    <g
       id="g2">
      <path
         style="fill:#030303"
         d="m 345,724.30295 c -6.54903,-0.50592 -37.89763,-5.22108 -42,-6.31724 -1.925,-0.51437 -7.16035,-1.83615 -11.63411,-2.93729 -26.23534,-6.45739 -61.78091,-20.58136 -83.86589,-33.32395 -9.28809,-5.35904 -27.87005,-16.91941 -28.5,-17.73067 -0.275,-0.35415 -3.34966,-2.56464 -6.83258,-4.9122 C 144.70266,640.56981 110.97089,606.44903 87.89375,573.83605 55.502462,528.06018 35.400187,475.83623 27.331259,416.5 c -2.533638,-18.63154 -2.546094,-65.46677 -0.02261,-85 0.994759,-7.7 2.473215,-17.15 3.285456,-21 4.07238,-19.30295 5.680854,-26.34546 6.851853,-30 0.70493,-2.2 2.324861,-7.6 3.599847,-12 1.274985,-4.4 2.686262,-8.4275 3.136173,-8.95 C 44.631892,259.0275 45,257.98109 45,257.22464 45,252.3673 64.359242,209.73464 73.028798,195.5 78.440734,186.61408 87.553291,172.57762 89.408881,170.26906 90.190954,169.29608 93.866274,164.45 97.57626,159.5 114.68021,136.67928 140.97362,110.49249 164,93.345612 172.08278,87.326668 183.94272,79 184.4329,79 c 0.23412,0 3.19714,-1.840863 6.5845,-4.090806 3.38736,-2.249944 8.93168,-5.565683 12.32071,-7.368309 C 206.72715,65.738259 211.975,62.950004 215,61.344762 222.51253,57.358174 245.29007,47 246.54401,47 c 0.35955,0 2.07174,-0.654562 3.80486,-1.454583 3.98398,-1.839034 22.94846,-8.114973 32.15113,-10.639812 6.82948,-1.873733 29.48018,-6.557893 42.5,-8.788993 25.32594,-4.339896 85.93077,-4.279577 102.5,0.102017 2.2,0.581771 5.125,1.163676 6.5,1.293121 7.33441,0.690479 13.78091,1.678924 16,2.453292 3.00789,1.049623 7.55156,2.097678 11.11438,2.56367 1.43791,0.188069 4.81291,1.013518 7.5,1.83433 2.68709,0.820812 9.61062,2.93265 15.38562,4.692973 34.21137,10.428237 68.42205,27.680267 99.13398,49.992061 29.1497,21.176864 51.99004,43.722414 74.91885,73.951924 3.54594,4.675 6.69808,8.725 7.00474,9 0.71388,0.64016 14.73864,23.04977 18.19659,29.07558 17.0944,29.78872 31.36921,69.14136 38.68579,106.64857 1.75304,8.98668 2.26691,12.42909 3.54918,23.77585 0.24861,2.2 0.91157,8.05 1.47324,13 1.22439,10.79052 1.25721,48.78657 0.0518,60 -2.38026,22.14315 -4.55006,36.28056 -6.98332,45.5 -0.50806,1.925 -2.08858,8.14307 -3.51225,13.81794 -2.68252,10.69271 -4.95532,18.23267 -6.53569,21.68206 -0.50398,1.1 -2.78458,7.175 -5.06799,13.5 -5.06028,14.01682 -12.60025,30.52069 -19.87345,43.5 -10.64976,19.00494 -30.78606,47.74561 -42.82652,61.12659 C 632.6244,614.28493 609.60901,637 608.40034,637 c -0.6525,0 -1.42815,0.63008 -1.72366,1.40017 -0.72458,1.88824 -19.70498,16.93316 -21.36256,16.93316 -0.72277,0 -1.10363,0.21049 -0.84636,0.46776 0.82054,0.82054 -8.44426,7.33147 -9.5021,6.67769 -0.55837,-0.34509 -0.89156,-0.0315 -0.74044,0.69689 0.15113,0.72838 -0.49507,1.26477 -1.436,1.19198 -0.94094,-0.0728 -1.61594,0.32941 -1.5,0.8938 0.35084,1.708 -22.71477,15.4413 -40.80905,24.29778 -35.3288,17.29213 -66.65767,27.05114 -105.98017,33.01306 -13.69624,2.07657 -61.54003,3.1181 -79.5,1.73066 z m 2.81448,-46.39745 C 349.01651,675.65352 350,673.38476 350,672.8638 c 0,-0.52096 1.27197,-3.74094 2.8266,-7.1555 1.55463,-3.41457 3.44417,-8.17386 4.19898,-10.57622 1.25876,-4.00633 1.21944,-4.47975 -0.47504,-5.71878 -1.61978,-1.18441 -2.72242,-0.87292 -8.94897,2.52801 -4.55522,2.48806 -7.21017,4.5826 -7.40444,5.8415 -0.37661,2.44043 2.26441,3.57573 4.96096,2.13258 1.10726,-0.59259 2.22106,-0.86957 2.47511,-0.61552 0.38901,0.38901 -2.51528,7.406 -5.76826,13.93656 -1.02326,2.05427 -1.14798,7.1472 -0.19827,8.0969 1.68914,1.68914 4.14844,0.31791 6.14781,-3.42783 z m 124.85664,-14.84657 c 3.92056,-2.39057 8.34154,-9.73441 9.05291,-15.03812 C 482.34526,643.38926 480.06418,639 477.03596,639 c -1.05486,0 -2.19604,-0.45 -2.53596,-1 -1.01135,-1.63639 -4.53096,-1.14399 -8.24938,1.15412 -7.1332,4.40856 -10.9202,19.28088 -6.06206,23.80692 2.79993,2.60854 8.2944,2.65163 12.48256,0.0979 z m -8.38835,-8.13044 c 0.58506,-4.36194 4.82631,-11.64938 7.34163,-12.6146 2.62157,-1.00599 4.7102,2.08899 3.99228,5.91585 C 474.81405,652.50813 469.00754,659 465.98346,659 c -2.05059,0 -2.19911,-0.35555 -1.70069,-4.07151 z M 296.18036,632.5 c 5.04868,-15.10171 5.62164,-18.58951 3.36191,-20.46492 -1.17944,-0.97884 -2.65899,-0.4869 -7.75,2.57682 -3.46075,2.08265 -7.07977,4.4417 -8.04227,5.24235 -4.18698,3.48291 0.0488,6.33538 5.34266,3.59784 3.04811,-1.57625 3.1651,-1.56726 2.58479,0.19847 -0.3343,1.01719 -1.74849,5.17084 -3.14264,9.23034 -3.64703,10.61948 -3.38739,14.52845 0.92404,13.91128 1.67059,-0.23914 2.89085,-2.83382 6.72151,-14.29218 z m 124.63022,12.46184 c 2.98999,-2.78559 6.37587,-9.66385 5.99891,-12.18649 -0.17022,-1.1391 -1.08062,-2.55443 -2.02312,-3.14516 -1.37394,-0.86116 -2.33366,-0.48495 -4.84158,1.89787 -3.98587,3.78706 -7.21798,10.03584 -6.44714,12.46454 0.50955,1.60545 1.55956,2.27068 4.56379,2.8914 0.30879,0.0638 1.5459,-0.80117 2.74914,-1.92216 z m -47.23707,-9.88361 c 5.45739,-6.74467 16.43554,-25.67477 17.1957,-29.65126 0.63547,-3.32427 -1.71708,-3.16938 -4.90627,0.32303 -7.43801,8.14516 -19.85044,29.44847 -19.85875,34.08333 -0.006,3.47266 1.86107,2.2996 7.56932,-4.7551 z m 113.86119,-11.183 c 3.71644,-4.41673 15.57597,-24.80291 20.5012,-35.24094 3.99825,-8.47349 4.66823,-11.52886 2.62193,-11.95711 C 507.66725,576.09223 483,618.9766 483,624.60685 c 0,3.22086 1.30147,3.01202 4.4347,-0.71162 z m -269.40505,-2.76216 c 4.16354,-4.59295 7.43089,-13.86464 6.54674,-18.57757 -0.7633,-4.06874 -3.97869,-7.5555 -6.96746,-7.5555 -3.09736,0 -8.54983,3.78857 -11.27731,7.83588 -3.32293,4.93089 -4.94646,13.26555 -3.33967,17.14468 2.95856,7.14259 9.1757,7.61908 15.0377,1.15251 z m -8.68479,-3.67676 c -1.59312,-4.1516 2.3024,-13.12679 6.72468,-15.49353 1.76083,-0.94237 1.93046,-0.67422 1.93046,3.0517 0,4.09077 -1.89797,8.95358 -4.77558,12.23552 -1.89284,2.15881 -3.10557,2.2233 -3.87956,0.20631 z m 145.79912,-24.89926 c 7.32305,-1.55216 12.55125,-3.94607 20.85602,-9.54963 11.09605,-7.48695 16.60264,-7.66033 33.49777,-1.05466 21.33515,8.34163 37.02908,8.56202 52.13854,0.7322 8.44936,-4.37851 18.57786,-16.79225 21.92627,-26.87336 1.6729,-5.03665 1.72961,-5.08466 11.27138,-9.54355 17.95816,-8.3919 25.68174,-15.32238 30.15168,-27.05556 2.43561,-6.39325 2.66417,-16.75259 0.52518,-23.80356 -0.81904,-2.69991 -1.49404,-4.96026 -1.5,-5.02301 -0.006,-0.0627 2.01562,-0.39183 4.49238,-0.7313 9.6516,-1.3229 17.03209,-7.78063 19.33218,-16.91515 0.99274,-3.94251 1.4464,-4.40002 5.41556,-5.46161 5.19017,-1.38816 12.80075,-7.80356 16.26021,-13.70667 10.4539,-17.83824 9.56149,-41.63552 -2.08019,-55.47087 -1.4739,-1.75163 -2.51133,-3.31989 -2.30539,-3.48501 0.20594,-0.16513 3.6918,-2.42254 7.74637,-5.01648 16.84694,-10.77795 29.70312,-27.25298 38.52736,-49.37234 5.58481,-13.99919 7.06622,-21.87291 7.00405,-37.22649 -0.0646,-15.94974 -1.6953,-23.80253 -7.38784,-35.5767 -6.49608,-13.43615 -20.40053,-24.67651 -38.51551,-31.13595 -10.46449,-3.73143 -24.85714,-4.28061 -34.65328,-1.32227 -13.05383,3.94214 -20.35598,8.47558 -31.52733,19.57331 l -10.18061,10.11353 -1.70758,-4.57596 c -12.17547,-32.62774 -32.59036,-57.87015 -59.80111,-73.94231 -21.50278,-12.70073 -48.4737,-18.67665 -72.78174,-16.12618 -31.79988,3.33653 -55.38906,14.17693 -76.68133,35.23887 -21.09531,20.86712 -33.41794,52.25762 -36.13411,92.04753 -0.53336,7.81337 -1.46113,21.81584 -2.06172,31.1166 -1.74037,26.95187 -5.30367,43.24785 -13.28399,60.75164 -4.75506,10.42959 -9.98402,17.86733 -20.59127,29.28925 -4.93454,5.31352 -9.89971,11.57759 -11.03372,13.92014 -6.84016,14.12988 -4.05946,29.55773 8.02997,44.55179 4.24963,5.27065 4.97061,6.70622 4.01779,8 -2.98851,4.05796 -6.30697,12.58533 -6.81566,17.51405 -1.52293,14.75577 7.23935,27.44291 23.53063,34.07063 l 5.67506,2.30876 0.0699,7.34163 c 0.0759,7.97172 2.13516,13.96622 6.9798,20.31788 3.62391,4.75118 13.51216,11.19516 20.13194,13.11958 7.55617,2.19664 20.16971,1.95052 28.81521,-0.56224 10.15635,-2.95188 13.4752,-2.70132 18.8816,1.42548 15.80344,12.06303 28.01041,15.43737 43.76556,12.09799 z M 336,582.63426 c -7.63883,-2.29957 -11.53571,-4.37735 -17.07064,-9.10188 -7.74616,-6.612 -14.63678,-8.03189 -24.52043,-5.0527 -2.69991,0.81382 -8.33244,1.98124 -12.51673,2.59425 -13.11588,1.92152 -24.23142,-2.25219 -31.54896,-11.84613 -4.23704,-5.55512 -5.14517,-11.5228 -2.95324,-19.40676 0.90883,-3.26887 1.41298,-6.3308 1.12034,-6.8043 -0.29263,-0.4735 -3.56468,-1.85851 -7.2712,-3.0778 -13.53758,-4.45329 -19.60115,-8.77171 -22.68609,-16.15682 -3.10085,-7.4232 -1.78668,-15.22099 4.12633,-24.48408 1.82634,-2.86108 3.32062,-5.94497 3.32062,-6.85307 0,-0.90811 -2.07555,-3.95962 -4.61233,-6.78113 -10.38725,-11.55313 -14.02174,-19.7346 -13.13093,-29.55862 0.7055,-7.78032 2.41653,-10.72065 12.48169,-21.4492 23.89211,-25.46682 33.7221,-51.74755 36.34004,-97.15602 2.66308,-46.19137 5.54943,-63.90705 13.5014,-82.86828 12.03322,-28.69282 37.62653,-51.36108 67.84356,-60.08973 13.78315,-3.98147 21.50346,-4.83506 38.57657,-4.26518 17.02416,0.56826 24.91851,2.17221 39.49254,8.02398 17.95886,7.21086 36.83514,22.04227 49.57974,38.95563 7.88142,10.45943 16.68152,28.50367 21.93069,44.96796 2.3279,7.30159 4.56375,14.17562 4.96854,15.27562 0.6231,1.6932 1.16286,1.1563 3.51866,-3.5 11.17984,-22.09724 30.41656,-37.86709 50.11728,-41.08507 5.87831,-0.96018 8.42859,-0.89153 14.74684,0.39694 10.62404,2.16656 24.79743,9.11001 31.91477,15.63486 17.48832,16.03246 21.01465,48.06229 8.78128,79.76067 -8.65651,22.43019 -30.14378,44.61268 -47.67637,49.21892 -3.48195,0.91479 -4.22344,1.57102 -4.75,4.20384 -0.92288,4.61441 -0.89545,4.68183 2.62603,6.45434 5.45507,2.74578 10.63778,8.49964 12.75643,14.16224 4.16468,11.13111 1.90833,27.70299 -5.17333,37.99584 -3.83821,5.57865 -7.79537,7.98385 -14.51716,8.82368 -4.90614,0.61299 -5.31637,0.8673 -5.32152,3.29896 -0.01,4.66424 -2.04341,10.15806 -4.97411,13.43808 -2.72092,3.04523 -3.20366,3.1967 -10.18828,3.1967 -5.98312,0 -7.90727,-0.41032 -10.45874,-2.23031 -5.17954,-3.69459 -6.44183,-7.5924 -5.24819,-16.20582 0.8135,-5.87032 0.75232,-7.52587 -0.30282,-8.19487 C 506.41405,451.34209 505,451.96683 505,454.5577 c 0,4.83404 4.18574,22.95747 8.09042,35.0299 4.84911,14.99242 5.1434,21.54375 1.31306,29.23025 -3.50776,7.03916 -8.9959,11.4673 -20.90348,16.86609 -13.50814,6.12448 -15.90586,8.08154 -18.45172,15.06059 -3.05641,8.37863 -4.04189,10.05853 -9.2568,15.77959 -5.3732,5.89472 -13.34861,9.96937 -22.75711,11.62665 -8.10744,1.42809 -15.5166,0.0294 -30.53437,-5.76427 -19.79774,-7.63772 -27.47614,-7.21927 -41.74252,2.27489 -11.99685,7.98381 -24.89384,10.94219 -34.75748,7.97287 z m 20.04836,-10.56064 c 2.78839,-1.0595 6.66609,-3.14392 8.6171,-4.63203 11.02644,-8.41027 30.32751,-49.05962 42.34983,-89.19159 5.02039,-16.75865 6.63226,-12.02804 3.03273,8.90063 -3.46985,20.17464 -11.41354,42.8099 -21.54956,61.40468 -2.47415,4.5389 -4.49846,8.4671 -4.49846,8.72934 0,0.26223 4.1625,0.67578 9.25,0.91899 8.13903,0.38909 10.68483,1.01491 21.19647,5.2106 13.88019,5.54024 19.15439,6.58285 27.5158,5.43935 10.20875,-1.39613 17.36996,-6.45277 21.86717,-15.44073 3.18353,-6.36249 5.76095,-22.6125 8.70974,-54.91286 2.1294,-23.32505 5.40219,-54.3985 6.09287,-57.84884 0.35332,-1.76501 0.92561,-2.4935 1.50427,-1.91484 0.53304,0.53304 0.93576,12.7032 0.93809,28.34884 0.004,24.57529 -0.64942,38.87342 -2.68683,58.82303 -0.53446,5.23324 -0.4008,6.30912 0.72898,5.86781 16.11507,-6.29479 24.00057,-11.32079 26.78455,-17.07173 2.85906,-5.90603 2.66239,-8.99627 -1.3666,-21.47276 C 495.38596,464.90137 493.1253,447.34259 492.08054,396.5 l -0.76031,-37 -2.79299,-7.5 c -3.35735,-9.01552 -4.52483,-25.50959 -2.63582,-37.23888 1.02963,-6.39315 0.91899,-8.50913 -0.92554,-17.70158 -2.735,-13.63019 -9.76077,-34.85611 -14.93187,-45.11142 -12.53343,-24.85626 -30.13781,-42.51649 -53.26041,-53.42935 -15.77768,-7.44638 -23.31688,-8.97404 -44.2736,-8.97112 -15.63142,0.002 -19.0527,0.29883 -26,2.25445 -29.35039,8.26195 -52.24388,25.84495 -63.96142,49.12461 -10.61806,21.09527 -13.98697,38.85809 -16.51439,87.07329 -2.49874,47.66821 -12.92968,75.7969 -38.00073,102.47503 -10.23107,10.8869 -11.96585,14.72533 -10.06566,22.27166 0.61476,2.44144 1.86861,5.6347 2.78634,7.09614 2.43762,3.88182 11.32209,14.15717 12.24084,14.15717 1.02865,0 7.60649,-11.15861 13.26341,-22.5 5.50623,-11.03928 14.30508,-33.83876 19.39264,-50.25 3.61197,-11.65135 5.37879,-14.95845 5.3425,-10 -0.0251,3.43525 -5.39134,26.93557 -8.89502,38.95412 -6.14718,21.08647 -13.39575,36.27314 -28.01,58.68449 -6.33415,9.7136 -8.0777,13.16841 -8.07477,16 0.004,4.10273 2.80133,9.28929 6.19852,11.49374 2.2392,1.45303 21.95462,8.79839 22.39916,8.34524 0.12279,-0.12518 2.25491,-5.22229 4.73804,-11.32693 8.58834,-21.114 19.65353,-55.89949 27.80196,-87.40066 2.77424,-10.725 5.22734,-19.6875 5.45133,-19.91667 1.97548,-2.02114 -2.29738,28.10409 -6.68409,47.1253 -5.98614,25.95656 -16.29955,57.50529 -25.9806,79.47472 -6.5346,14.82909 -6.52155,17.14841 0.13258,23.56213 2.83303,2.73068 5.79184,4.737 6.72176,4.55791 0.94136,-0.18129 2.45329,-2.45346 3.48936,-5.24391 1.63512,-4.40386 1.66451,-5.01564 0.27824,-5.79143 C 268.22299,548.46578 268.68398,547 271.42054,547 c 1.90164,0 2.56876,-0.67478 3.11189,-3.14764 0.5197,-2.36619 0.29116,-3.37158 -0.92055,-4.04969 -2.67526,-1.49715 -2.01961,-3.94311 0.86303,-3.21961 2.02519,0.50829 2.70227,0.12217 3.72609,-2.12486 1.12358,-2.46599 1.02416,-2.89674 -0.97492,-4.22408 C 274.1976,528.22328 274.42961,527 277.83948,527 c 2.06612,0 3.15294,-0.68795 3.99034,-2.52584 1.03087,-2.26252 0.88853,-2.64536 -1.36538,-3.67232 -3.20192,-1.45889 -2.63586,-3.30184 1.01416,-3.30184 2.36625,0 3.01826,-0.61641 4.18,-3.95181 0.75704,-2.1735 1.93106,-4.32054 2.60892,-4.77119 1.14001,-0.75791 6.19738,-0.3033 9.12537,0.82027 0.68798,0.264 1.78294,-0.68776 2.43324,-2.11502 1.4465,-3.17471 3.17387,-2.37556 3.17387,1.46836 0,2.24616 0.5612,2.97343 2.7108,3.51294 2.58244,0.64815 5.2892,-1.22214 5.2892,-3.65468 0,-0.44488 0.45,-0.80887 1,-0.80887 0.55,0 1,1.53925 1,3.42054 0,3.00521 0.37295,3.50246 3.07151,4.09517 1.68932,0.37103 3.15182,0.51929 3.25,0.32945 2.90425,-5.61607 4.67849,-6.21533 4.67849,-1.58018 0,3.09447 0.40684,3.59145 4.14064,5.05813 l 4.14065,1.62649 -0.63582,5.40983 c -0.56997,4.84956 -0.42919,5.46387 1.35935,5.93158 2.85192,0.74579 2.46814,2.70899 -0.52957,2.70899 -1.79002,0 -2.80856,0.74647 -3.5,2.5651 -1.37823,3.62501 -1.27612,3.97679 1.52475,5.25295 3.39786,1.54817 3.15092,3.18195 -0.48095,3.18195 -2.38722,0 -3.11281,0.52538 -3.643,2.63783 -0.51396,2.04779 -0.15227,3.02237 1.61698,4.35691 2.39337,1.80533 1.30053,3.71562 -1.50889,2.63755 -1.704,-0.65389 -2.49322,0.4741 -3.52141,5.03295 -0.66689,2.95692 -0.40765,3.77064 1.88192,5.90688 1.46044,1.36264 4.8812,3.59136 7.60169,4.95271 6.31335,3.15922 16.13113,3.38751 23.60202,0.54879 z m 43.43877,-248.18831 c -4.15725,-2.02263 -6.7632,-7.5066 -7.26224,-15.28271 -0.73709,-11.48546 2.84902,-18.62474 9.4496,-18.81241 4.56647,-0.12983 7.29566,1.94887 9.89859,7.53933 4.30733,9.25112 2.50773,24.89055 -3.11227,27.04715 -2.31631,0.88885 -6.62135,0.65313 -8.97368,-0.49136 z m 59.80321,-13.84982 c -4.94405,-3.01454 -7.42273,-8.85187 -7.45689,-17.56107 -0.0326,-8.31053 1.82978,-12.67807 6.17325,-14.47719 12.16242,-5.03785 21.16381,24.46609 9.87643,32.37208 -3.02128,2.11618 -4.68034,2.05173 -8.59279,-0.33382 z M 290.98703,559.93532 c 5.75325,-1.74749 8.71199,-2.07386 14.84893,-1.6379 4.21522,0.29945 8.61457,0.8413 9.77633,1.20413 3.06596,0.95753 4.19709,-3.43814 1.38276,-5.37352 C 314.45391,552.38052 314.44057,551 316.96482,551 318.99703,551 321,548.30256 321,545.56574 321,544.70458 320.292,544 319.42668,544 c -0.95951,0 -1.44198,-0.68204 -1.23665,-1.7482 0.18517,-0.96152 1.13314,-1.74902 2.1066,-1.75 3.61299,-0.004 5.09312,-5.90511 1.70337,-6.79155 C 319.1443,532.96347 319.52446,531 322.52475,531 c 1.79002,0 2.80856,-0.74647 3.5,-2.5651 1.4148,-3.7212 1.26447,-4.14549 -1.73555,-4.89845 -1.91164,-0.47979 -3.04966,-0.21695 -3.86024,0.89159 -1.55849,2.13136 -2.23026,1.97696 -2.60941,-0.59971 -0.20151,-1.36948 -1.40757,-2.5325 -3.26499,-3.14848 -2.51749,-0.83489 -3.15269,-0.66466 -4.37197,1.17167 -1.97003,2.96703 -3.18259,2.68704 -3.18259,-0.73489 0,-2.14483 -0.57631,-3.03781 -2.25,-3.48634 -3.63846,-0.97507 -4.48687,-0.74449 -5.03975,1.36971 -0.80391,3.07416 -2.71025,2.37078 -2.71025,-1 0,-2.28333 -0.47778,-3.03583 -2,-3.15 -1.1,-0.0825 -2.525,-0.195 -3.16667,-0.25 -0.64166,-0.055 -1.58867,1.16602 -2.10446,2.71338 -0.75036,2.25108 -0.58658,3.07018 0.81945,4.09829 2.1809,1.59471 0.98491,3.89235 -1.59917,3.07219 -2.63965,-0.83779 -3.99401,4.27895 -1.59661,6.03197 2.53037,1.85026 2.04801,3.79389 -0.80615,3.24829 -2.02002,-0.38615 -2.64063,0.0675 -3.51197,2.567 -1.02139,2.92994 -0.22448,4.60375 2.21558,4.65357 0.4125,0.008 0.75,0.70734 0.75,1.55316 0,1.07545 -0.81261,1.4513 -2.70257,1.25 -2.16006,-0.23007 -2.89925,0.2581 -3.68239,2.43187 -0.78045,2.16632 -0.6098,3.12859 0.83869,4.72915 1.62134,1.79156 1.64631,2.07551 0.23028,2.61889 -0.87353,0.33521 -2.00212,0.35367 -2.50797,0.041 -0.81329,-0.50264 -4.17604,6.59476 -4.17604,8.81392 0,1.28025 8.8487,-0.0155 16.98703,-2.4874 z m 239.28239,-88.79557 c 0.97318,-0.95378 2.20351,-4.40128 2.73406,-7.66111 0.96015,-5.89943 0.94896,-5.94335 -2.40924,-9.4528 -1.85563,-1.93921 -4.14774,-5.06131 -5.09359,-6.93799 -2.35434,-4.67134 -3.06237,-14.00992 -1.48842,-19.63152 1.56499,-5.58962 7.74182,-12.56296 13.98777,-15.79152 6.40004,-3.3082 5.90873,-5.04931 -1.59851,-5.66481 -3.35418,-0.275 -6.80162,-1.08435 -7.66097,-1.79856 -0.85936,-0.71421 -1.77959,-0.93921 -2.04497,-0.5 -0.59774,0.98927 -4.93837,23.94885 -10.30173,54.49046 -1.75264,9.98038 -1.16772,12.1169 3.93492,14.37303 3.64403,1.61121 7.39059,1.07407 9.94068,-1.42518 z m 19.38081,-20.06812 c 7.44045,-4.53689 12.42337,-22.5938 9.30674,-33.72532 C 556.84098,409.78875 549,402.42865 549,408 c 0,1.1 0.45,2 1,2 0.55,0 1,1.08012 1,2.40026 0,2.06462 -0.72384,2.57391 -5.17648,3.64208 -6.87747,1.64988 -13.10018,7.30248 -14.82644,13.46809 -2.58804,9.24357 0.7524,18.14638 8.18255,21.80781 4.34576,2.14151 6.64285,2.08741 10.4706,-0.24661 z M 512.43792,442.75 C 513.56912,437.40316 520,401.95964 520,401.07188 c 0,-0.53792 -1.65839,-1.765 -3.68531,-2.72684 -2.02692,-0.96184 -6.41442,-3.94151 -9.75,-6.62149 l -6.06469,-4.8727 -0.33971,6.82458 c -0.36883,7.40975 1.72182,46.28976 2.56348,47.67332 0.61508,1.01108 6.2576,3.55648 8.00718,3.61211 0.67702,0.0215 1.44516,-0.97336 1.70697,-2.21086 z m 28.75473,-43.61239 c 0.38096,-0.35069 1.12734,-2.58001 1.65863,-4.95406 1.08127,-4.83158 1.23341,-4.68883 -6.03237,-5.65984 l -4.68109,-0.62559 -0.67181,4.47994 c -0.36949,2.46397 -0.35445,4.99343 0.0334,5.62102 1.59647,2.58314 7.38526,3.26307 9.69322,1.13853 z m -16.1679,-8.70271 C 525.56114,389.0241 526,387.6492 526,387.37958 c 0,-0.26963 -2.5875,-1.66265 -5.75,-3.09561 -3.1625,-1.43297 -8,-4.02116 -10.75,-5.75154 -2.75,-1.73039 -5.5625,-3.48463 -6.25,-3.89831 -2.65498,-1.59756 -1.06201,1.61586 3,6.05176 3.94863,4.31208 14.95005,12.31412 16.92979,12.31412 0.47834,0 1.30857,-1.15429 1.84496,-2.5651 z m 34.07911,-11.4568 c 21.00988,-10.50549 36.65003,-32.66204 42.42077,-60.0952 3.03525,-14.42909 1.13264,-33.79374 -4.38245,-44.60421 -3.04083,-5.96051 -10.6235,-13.81463 -15.59188,-16.15004 -18.05495,-8.48683 -42.21199,2.60628 -58.40978,26.82223 -10.19526,15.24209 -15.03902,29.37538 -15.87002,46.30607 -0.61498,12.52968 0.65636,20.42021 4.74201,29.43091 3.04586,6.71749 10.58049,15.52522 15.45601,18.06753 10.14542,5.29028 21.34307,5.36911 31.63534,0.22271 z M 535.4917,373.20284 C 521.67643,368.42554 514,354.69011 514,334.74774 c 0,-22.24419 8.73623,-42.83272 24.37037,-57.43329 9.87797,-9.22494 16.8217,-12.61413 26.90107,-13.13024 6.84374,-0.35042 8.41728,-0.082 13.18161,2.24902 6.42285,3.1424 10.89195,7.94417 14.44584,15.52114 2.46406,5.25344 2.6005,6.38865 2.58956,21.54563 -0.0112,15.48424 -0.1176,16.30623 -3.3011,25.5 -4.20427,12.14167 -9.69537,21.38093 -17.83563,30.01004 -7.56251,8.01666 -13.73784,12.19531 -21.28322,14.4017 -6.89888,2.01735 -11.28974,1.96516 -17.5768,-0.2089 z m 23.67288,-7.37124 c 10.11341,-5.39039 20.47674,-17.25359 26.42802,-30.2529 8.20844,-17.9296 8.53213,-41.99982 0.74508,-55.40721 -1.3827,-2.38067 -2.76207,-4.08043 -3.06526,-3.77724 -0.30319,0.30319 0.26151,3.37602 1.25491,6.8285 2.3793,8.26917 2.41663,23.64087 0.0832,34.27725 -0.99404,4.53116 -3.86642,12.33604 -6.62443,18 -7.5064,15.41543 -15.54353,24.44785 -28.11473,31.59637 l -5.37141,3.05441 4.43885,-0.61741 c 2.44137,-0.33957 7.04295,-2.00537 10.22573,-3.70177 z M 529.4191,328.35024 C 530.13891,326.47444 528.35028,323 526.66482,323 525.05224,323 523,325.03194 523,326.62857 c 0,1.90465 2.89869,4.34754 4.45162,3.75162 0.76656,-0.29415 1.65192,-1.20763 1.96748,-2.02995 z m 6.56862,-22.14715 c 4.87799,-8.94486 11.49278,-16.78154 18.55692,-21.98478 4.25343,-3.13296 5.69317,-6.33527 3.46689,-7.71119 -1.74239,-1.07685 -9.34661,3.04152 -14.93029,8.0861 -8.72045,7.87849 -16.96366,22.75481 -15.60607,28.16388 1.05146,4.18933 3.81346,2.06279 8.51255,-6.55401 z m -26.89651,59.74173 c -5.44693,-10.52609 -6.61422,-16.21038 -6.45731,-31.44482 0.0991,-9.6231 0.668,-14.99378 2.19001,-20.67543 7.99314,-29.83811 27.63712,-53.75581 50.2422,-61.17282 6.7852,-2.2263 7.18753,-2.50312 4.6106,-3.17225 -1.55281,-0.40321 -6.0785,-0.5242 -10.05708,-0.26887 -10.82165,0.69449 -20.84285,5.80925 -30.73337,15.68613 -31.09696,31.05405 -37.07178,79.07772 -12.85171,103.29779 3.32866,3.32866 6.24495,5.85929 6.48063,5.62361 0.23568,-0.23568 -1.30511,-3.77868 -3.42397,-7.87334 z M 572.94492,586.75 c 4.13382,-9.15551 9.05897,-22.90101 9.30074,-25.95727 0.36131,-4.56732 -1.89473,-4.65633 -10.80214,-0.42622 -5.68657,2.70054 -7.44352,4.01862 -7.44352,5.5842 0,2.33323 3.67196,2.8304 7.15139,0.96827 2.36575,-1.26611 3.57406,-0.52176 2.12143,1.30685 -0.55669,0.7008 -1.57946,3.07417 -2.27282,5.27417 -0.69336,2.2 -1.69651,4.54974 -2.22924,5.22165 -0.53273,0.67191 -1.35006,2.91302 -1.8163,4.98025 -0.65815,2.91816 -0.48957,4.15431 0.75391,5.52835 2.347,2.59341 3.1086,2.23268 5.23655,-2.48025 z M 236.5601,585.48766 C 239.42707,580.59555 239.23929,578 236.01839,578 c -1.4251,0 -2.69103,1.33099 -4.1791,4.39388 -3.88157,7.98945 0.26083,10.70417 4.72081,3.09378 z M 144.57265,554.96483 C 151.24514,551.73473 156,543.64247 156,535.51669 c 0,-5.76341 -0.69427,-7.30723 -4.07152,-9.05368 -8.5051,-4.39815 -17.709,2.33911 -21.00262,15.37394 -1.23735,4.89695 -1.18683,5.63698 0.61281,8.97611 1.76702,3.27864 5.41853,6.13311 7.89561,6.1722 0.51385,0.008 2.82611,-0.90109 5.13837,-2.02043 z m -6.57827,-6.4716 c -1.778,-2.14236 0.36315,-9.25811 4.17863,-13.88695 3.33048,-4.04045 5.26641,-4.52225 6.78318,-1.68814 1.64285,3.0697 0.0962,7.74072 -4.16649,12.58344 -4.34989,4.94173 -4.95559,5.20839 -6.79532,2.99165 z m 54.71211,-10.00171 c 2.83981,-5.0142 3.05137,-9.49152 0.4485,-9.49152 -3.48688,0 -7.79106,7.32955 -6.74701,11.4894 0.93134,3.71072 3.53276,2.88555 6.29851,-1.99788 z M 599.45733,522 c 4.20406,-8.525 8.03609,-16.22548 8.51561,-17.11218 0.94491,-1.74724 19.10588,-41.68799 22.11552,-48.63782 1.49746,-3.45795 1.5773,-4.25 0.42837,-4.25 -0.77665,0 -3.54874,3.9375 -6.16019,8.75 -2.61146,4.8125 -6.31796,11.22054 -8.23668,14.24009 -3.76014,5.91745 -22.16071,41.99139 -26.0191,51.00991 -3.90598,9.12976 -5.33509,13.94721 -4.65965,15.70738 1.22551,3.19364 6.10813,-3.67157 14.01612,-19.70738 z M 637.5,524.65973 c 5.48842,-3.80143 9.36396,-11.27115 9.42189,-18.15973 0.0501,-5.95282 -4.41976,-10.5 -10.32135,-10.5 -3.56462,0 -9.48332,5.55316 -12.24923,11.49272 -2.91048,6.25 -3.19343,14.43519 -0.58075,16.79964 4.40667,3.98798 8.34975,4.09348 13.72944,0.36737 z m -7.83333,-4.3264 c -2.94044,-2.94043 3.4469,-16.4944 8.08333,-17.15288 1.98565,-0.28201 2.25,0.11534 2.25,3.38197 0,3.94811 -2.97537,9.82783 -6.40916,12.66534 -2.314,1.91217 -2.94094,2.08881 -3.92417,1.10557 z M 557.07815,516.25 c 5.82282,-9.11584 11.3467,-21.22515 10.20365,-22.3682 -2.16117,-2.16117 -4.82624,-0.28727 -7.99861,5.62406 -3.61385,6.73398 -8.40011,20.04388 -7.52317,20.92083 1.26694,1.26693 2.41883,0.36227 5.31813,-4.17669 z M 166.94055,501.10287 C 174.49516,487.65846 181,473.80566 181,471.16166 c 0,-5.252 -4.3601,-2.32557 -8.88808,5.96556 -12.60017,23.07199 -16.96977,33.19488 -15.72687,36.43383 0.61543,1.60377 0.78035,1.59924 2.62712,-0.0721 1.08376,-0.98079 4.65153,-6.55455 7.92838,-12.38612 z m 488.61488,-34.28721 c 8.48377,-14.98357 23.31636,-44.72449 24.5338,-49.19286 1.25549,-4.60809 0.16948,-6.36681 -2.91287,-4.71718 -2.04677,1.09539 -19.1438,34.68495 -24.73446,48.59438 -1.54744,3.85 -3.12795,7.45 -3.51224,8 -0.38429,0.55 -1.01143,2.4625 -1.39364,4.25 -1.38471,6.47593 2.16376,3.40759 8.01941,-6.93434 z M 134.76412,458.75 C 136.44335,456.66972 144,433.25176 144,430.12813 c 0,-1.60278 -0.61041,-3.14839 -1.35648,-3.43468 -1.67683,-0.64346 -12.60777,5.29528 -14.07281,7.6457 -1.47497,2.36636 0.83244,3.69241 4.56321,2.62244 2.66365,-0.76392 3.99832,0.22061 1.98548,1.46462 -0.48433,0.29933 -1.11628,1.56338 -1.40433,2.80901 -0.28805,1.24563 -1.45728,5.38012 -2.59829,9.18776 -1.53686,5.12866 -1.7891,7.26692 -0.97322,8.25 1.3844,1.6681 3.31031,1.7002 4.62056,0.077 z m -45.052814,-10 c 0.577096,-1.2375 1.834784,-4.275 2.794862,-6.75 0.960078,-2.475 2.330606,-5.85 3.045619,-7.5 0.715012,-1.65 2.03885,-4.70725 2.941863,-6.79389 2.25578,-5.21257 2.35498,-8.69829 0.285771,-10.0417 -1.383539,-0.89825 -3.146522,-0.35255 -9,2.78579 -8.057982,4.32027 -9.165726,5.3794 -7.599774,7.26626 1.428128,1.72079 3.897014,1.61857 6.597847,-0.27316 2.949415,-2.06585 2.832419,-1.31994 -1.265285,8.06697 -3.268173,7.48664 -4.381645,13.28696 -2.845542,14.82306 1.401534,1.40154 4.038666,0.57384 5.044639,-1.58333 z M 605.44281,437.69542 c 1.49378,-3.95748 3.58719,-9.40966 4.65203,-12.11595 2.74827,-6.98476 3.3966,-11.92672 1.74452,-13.29783 -1.03379,-0.85797 -2.99676,-0.30197 -8.34555,2.36383 -8.28107,4.12723 -10.19895,6.07796 -8.06933,8.20758 1.20976,1.20976 1.94664,1.23587 4.54185,0.1609 3.71201,-1.53757 4.60316,-0.94656 3.02346,2.00513 C 601.38871,428.01072 597,440.21394 597,441.67424 c 0,1.83379 2.90467,4.29957 4.39237,3.72869 0.73397,-0.28165 2.55667,-3.75003 4.05044,-7.70751 z M 157.84988,408.75 c 5.11389,-6.85827 11.27167,-17.8973 14.53853,-26.06316 2.82328,-7.0571 3.1664,-9.22592 1.61159,-10.18684 -0.55,-0.33992 -1,-0.24938 -1,0.2012 0,0.45058 -1.03036,1.93964 -2.28969,3.30902 -6.14804,6.68531 -20.81143,35.55532 -18.98606,37.3807 1.26342,1.26341 2.31987,0.46302 6.12563,-4.64092 z m -39.32447,-19.10726 c 2.62857,-4.47851 5.8669,-9.94274 7.19629,-12.14274 5.87428,-9.72132 18.37142,-31.47042 25.56993,-44.5 9.3995,-17.01347 22.56938,-44.53899 21.71766,-45.39071 -0.53678,-0.53678 -1.10889,-0.78096 -1.27137,-0.54262 C 167.68824,293.00713 156,311.1107 156,311.44267 c 0,0.25139 -1.35,2.45739 -3,4.90222 -1.65,2.44484 -3,4.70866 -3,5.03072 0,0.32205 -1.575,3.04768 -3.5,6.05694 -1.925,3.00926 -3.5,5.6605 -3.5,5.89164 0,0.23115 -2.41862,4.45129 -5.37471,9.3781 -2.95608,4.9268 -7.41976,12.7468 -9.91927,17.37777 C 115.1994,383.25168 112,389.4433 112,390.47498 c 0,0.61876 -0.39564,1.55252 -0.8792,2.07502 -1.52516,1.64798 -3.29473,8.35956 -2.53022,9.59656 0.95657,1.54776 3.75396,-1.973 9.93483,-12.50382 z m 504.2709,2.27724 c 2.3739,-3.53099 13.77273,-25.54498 25.33074,-48.91998 11.558,-23.375 21.88269,-44.13627 22.94375,-46.13615 2.05942,-3.8816 2.50444,-6.86385 1.02424,-6.86385 -0.49773,0 -3.06365,3.7125 -5.70204,8.25 -2.63839,4.5375 -5.0699,8.475 -5.40335,8.75 -0.51404,0.42392 -7.25274,12.00573 -16.02595,27.54378 -6.06708,10.74528 -21.27758,41.20041 -25.40236,50.86172 -6.49304,15.20838 -4.84339,18.5304 3.23497,6.51448 z M 208.12426,374.25 c 4.64656,-5.1144 6.27664,-11.84246 3.43966,-14.19695 -2.13319,-1.77039 -5.15215,0.22819 -8.63104,5.71383 -3.12897,4.93388 -3.67437,8.09163 -1.73288,10.03312 1.92202,1.92202 4.24158,1.40279 6.92426,-1.55 z m 458.02581,-5.32622 c 2.91644,-4.79132 3.66995,-10.39513 1.50925,-11.22427 -1.96776,-0.7551 -3.14183,0.30967 -5.52499,5.01065 -2.96162,5.84206 -2.80329,12.01283 0.28184,10.98445 0.57265,-0.19088 2.2529,-2.33776 3.7339,-4.77083 z M 81.384059,368.91254 C 84.145862,366.7401 88,359.80751 88,357.01217 c 0,-4.53254 -5.806179,-5.34516 -9.01826,-1.26217 -4.353956,5.53447 -6.038568,11.79317 -3.78174,14.05 1.705473,1.70547 3.151491,1.49796 6.184059,-0.88746 z M 99.038033,332.75 c 1.163767,-1.2375 3.710607,-5.175 5.659647,-8.75 1.94904,-3.575 4.36431,-7.68535 5.36728,-9.13412 1.00296,-1.44877 5.44865,-9.69221 9.8793,-18.31876 C 127.3882,282.05366 129.47459,276 127.02579,276 124.1805,276 94,327.35807 94,332.19989 c 0,3.37385 2.160664,3.60978 5.038033,0.55011 z m 97.170297,-28 c 4.55023,-6.04662 11.87439,-21.77977 10.92705,-23.47258 -0.69094,-1.23464 -2.0614,0.10078 -6.49495,6.32888 -6.28214,8.82493 -11.03599,17.94465 -10.12359,19.42094 1.12712,1.82373 3.24226,0.97744 5.69149,-2.27724 z M 633.56575,285 c 6.38443,-11.19512 14.81994,-28.03017 15.9114,-31.75493 0.81613,-2.78518 -1.74738,-4.1177 -3.85911,-2.00597 C 641.10198,255.75516 622,292.3207 622,296.4494 c 0,6.30065 3.31412,3.01987 11.56575,-11.4494 z M 181.17226,256.74313 c 2.63731,-1.98473 5.4019,-5.37489 7.07774,-8.67931 4.42863,-8.73238 3.36309,-15.63358 -2.98638,-19.34187 -2.73911,-1.59972 -3.75834,-1.71378 -6.68452,-0.74806 -9.01344,2.97471 -16.46767,17.57035 -13.09542,25.64129 2.90117,6.94348 9.00214,8.15987 15.68858,3.12795 z m -8.98712,-5.37678 c -2.03807,-3.64183 2.38724,-13.73485 7.17138,-16.35611 2.5405,-1.39195 2.86777,-1.36051 4.17841,0.40145 0.86326,1.16052 1.17825,2.92872 0.80164,4.5 -2.20082,9.18227 -9.54747,16.10767 -12.15143,11.45466 z m -30.52475,-32.00948 c 6.84798,-3.24958 12.42509,-17.52508 8.93037,-22.85869 -0.90027,-1.374 -2.27913,-2.49818 -3.06412,-2.49818 -0.78499,0 -1.82087,-0.70334 -2.30194,-1.56298 -1.22267,-2.18478 -5.57095,-0.93692 -9.12716,2.61928 -3.61467,3.61467 -7.23912,11.28027 -7.85717,16.61767 -0.40695,3.51434 -0.0762,4.58108 2.09269,6.75 2.99018,2.99018 6.40011,3.27101 11.32733,0.9329 z M 135,212.1633 C 135,207.99578 140.88651,198 143.34077,198 c 1.68789,0 1.85716,0.55165 1.4037,4.5747 C 143.85657,210.45209 135,219.167 135,212.1633 Z m 466.22442,7.0867 c 4.85999,-5.54288 6.33846,-15.34209 2.42671,-16.08405 -4.16762,-0.79049 -11.53429,10.17913 -10.25603,15.27213 0.50025,1.99316 1.27038,2.56192 3.46896,2.56192 1.55428,0 3.51644,-0.7875 4.36036,-1.75 z m -38.96636,-6 C 566.97096,206.0832 575,192.21359 575,191.23921 c 0,-0.31995 0.63771,-1.29216 1.41712,-2.16047 C 578.95899,186.24699 593,157.72118 593,155.38886 c 0,-3.41906 -1.41457,-3.62351 -4.1742,-0.6033 C 586.12614,157.74013 579,168.4227 579,169.5151 c 0,0.37189 -0.84687,1.87063 -1.88193,3.33053 -1.89919,2.67873 -4.52575,7.47946 -15.20347,27.78836 C 555.70438,212.44576 553.50716,220 556.28182,220 c 0.84559,0 3.5349,-3.0375 5.97624,-6.75 z m -359.94187,-7.0799 c 10.65636,-17.21041 26.43427,-43.83318 39.21552,-66.1701 4.24861,-7.425 8.6283,-15.075 9.73265,-17 C 255.18418,116.16733 268,90.841512 268,89.92808 c 0,-2.664266 -3.08566,-0.215862 -6.70708,5.32192 -5.77587,8.83232 -13.15094,20.46783 -16.32142,25.75 -1.48555,2.475 -5.73924,9.45 -9.45263,15.5 -8.18164,13.32982 -9.82861,16.14582 -14.32909,24.5 -1.92589,3.575 -4.3756,7.75647 -5.44381,9.29216 -4.29468,6.17416 -21.63656,41.82938 -21.06689,43.31391 0.52091,1.35748 0.84953,1.30977 2.52605,-0.36676 1.05998,-1.05998 3.35996,-4.24113 5.11106,-7.06921 z m 304.6237,2.26524 C 511.43931,204.37038 516,195.97331 516,191.754 c 0,-3.59663 -2.43208,-8.37969 -4.94461,-9.72436 -5.52032,-2.95438 -12.59784,0.44249 -17.52427,8.4108 -2.55054,4.12541 -3.03112,5.92008 -3.03112,11.31949 0,5.53715 0.32362,6.67883 2.36078,8.32842 3.93786,3.18868 9.43423,2.54336 14.07911,-1.65301 z m -9.8301,-4.23019 c -1.13583,-2.12232 1.02154,-9.51313 3.73875,-12.80833 2.27544,-2.75947 5.91267,-4.66243 7.28749,-3.81275 1.71354,1.05903 0.39796,8.85727 -2.08174,12.33968 -1.21658,1.70854 -3.50924,3.77728 -5.09481,4.5972 -2.63983,1.36511 -2.96434,1.33849 -3.84969,-0.3158 z M 468.70871,180.75 c 4.82524,-5.2771 6.68102,-12.35174 3.85521,-14.69695 -2.57064,-2.13344 -6.57794,1.22045 -9.93983,8.31908 -3.24172,6.84488 1.30236,11.60796 6.08462,6.37787 z M 279.83185,168.4191 c 4.36332,-11.6293 6.96721,-20.60604 6.43061,-22.1691 -0.65368,-1.90411 -3.8297,-1.50317 -9.0457,1.14191 -5.37189,2.72414 -8.72135,5.98264 -7.7557,7.54508 0.88649,1.43437 4.8533,1.34865 6.33894,-0.13699 2.04059,-2.04059 1.44328,1.06536 -1.76925,9.2 -1.62905,4.125 -2.9774,8.49014 -2.99633,9.70031 -0.0344,2.19575 2.57788,4.50228 4.45828,3.93655 0.54599,-0.16426 2.4986,-4.31226 4.33915,-9.21776 z m -92.4669,2.91729 c 4.86297,-6.70106 14.90795,-26.68555 14.48958,-28.827 -0.3844,-1.9676 -1.30931,-1.21322 -7.31965,5.97011 -2.42501,2.89829 -11.70063,18.77605 -12.23328,20.94061 -1.50505,6.1162 -1.49997,6.57989 0.0721,6.57989 0.88377,0 3.12983,-2.09862 4.99124,-4.66361 z m 336.07285,-5.21612 c 0.81905,-1.58385 2.12297,-4.62135 2.89761,-6.75 0.77464,-2.12865 3.04107,-7.833 5.03651,-12.67634 4.18751,-10.16391 4.21117,-10.3115 1.85547,-11.57224 -1.31769,-0.7052 -3.6289,-0.0531 -9.00548,2.54078 -10.39219,5.01366 -12.00195,9.64445 -2.7492,7.90863 l 3.45764,-0.64866 -1.56958,3.78878 c -0.86327,2.08383 -1.9221,4.23878 -2.35296,4.78878 -0.43086,0.55 -1.60603,3.635 -2.61149,6.85555 -1.78626,5.7215 -1.78445,5.88747 0.0789,7.25 2.67858,1.95863 3.27377,1.78049 4.96256,-1.48528 z m -113.39908,-9.14002 c 5.40917,-2.75956 9.19377,-8.73868 9.74595,-15.39719 0.37815,-4.56001 0.11932,-5.5946 -1.86128,-7.43981 C 416.34937,132.67683 414.33172,132 411.5343,132 c -7.28574,0 -13.55202,7.98078 -13.51899,17.21788 0.0183,5.11513 0.6033,6.18162 4.50752,8.2174 3.63784,1.8969 2.80714,1.94719 7.51589,-0.45503 z m -5.52821,-5.96324 C 402.59864,147.92353 408.10001,137 411.56984,137 c 2.36961,0 2.8289,4.78936 0.87484,9.12269 -2.25077,4.9913 -6.32207,7.50275 -7.93417,4.89432 z M 334.25,138.30253 C 337.46961,134.05898 337.92293,130 335.17726,130 c -1.15198,0 -2.62398,1.60431 -4,4.35953 -3.94293,7.89495 -1.9074,10.50698 3.07274,3.943 z M 497.57886,128.5 c 0.77662,-1.65 2.37527,-4.575 3.55256,-6.5 3.82467,-6.25376 8.08076,-17.18782 7.07993,-18.18865 -1.13248,-1.13248 -5.28168,3.98295 -10.6975,13.18865 -2.10321,3.575 -4.58318,7.625 -5.51103,9 -2.45063,3.63161 -4.29102,9.81464 -3.50969,11.79124 0.56521,1.42986 1.24657,1.05589 4.17458,-2.29124 1.92452,-2.2 4.13454,-5.35 4.91115,-7 z m -197.33807,-3.08016 c 9.14577,-13.08012 25.5419,-41.718151 28.2028,-49.259951 1.61499,-4.577383 0.36709,-6.982381 -2.50474,-4.827205 C 324.56338,72.36491 316.30751,85.225851 310.746,95 c -10.51952,18.48766 -11.03913,19.53035 -15.77245,31.65023 -0.89834,2.30022 -0.26666,3.61214 1.46395,3.04044 0.58438,-0.19304 2.29586,-2.11492 3.80329,-4.27083 z M 426.33953,120.75 c 4.32822,-5.76194 10.84139,-16.96325 16.71713,-28.75 6.73476,-13.509953 7.45461,-15.565984 5.80654,-16.584546 -1.29701,-0.8016 -5.47994,3.577998 -7.95886,8.333058 -0.77238,1.481602 -2.91623,4.956796 -4.76409,7.722654 -5.44878,8.155687 -14.76902,27.799104 -14.36644,30.278834 0.5009,3.0853 1.69309,2.82419 4.56572,-1 z M 368.90437,97.397933 c 0.77241,-1.593863 1.76575,-3.137647 2.20742,-3.43063 0.44167,-0.292983 0.9347,-2.542983 1.09562,-5 0.2633,-4.020057 0.0591,-4.500377 -2.03988,-4.797661 -2.79927,-0.396473 -5.74758,2.075778 -8.14563,6.830358 -3.15078,6.247023 -3.2981,7.723803 -0.99975,10.02215 1.90717,1.90717 2.34708,1.97867 4.30115,0.69908 1.19719,-0.78395 2.80867,-2.729434 3.58107,-4.323297 z"
         id="path2" />
    </g>
  </g>
</svg>
