<?xml version="1.0" encoding="UTF-8" standalone="no"?>
<!-- Created with Inkscape (http://www.inkscape.org/) -->

<svg
   version="1.1"
   id="svg1"
   width="752"
   height="752"
   viewBox="0 0 752 752"
   xmlns="http://www.w3.org/2000/svg"
   xmlns:svg="http://www.w3.org/2000/svg">
  <defs
     id="defs1" />
  <g
     id="g1">
    <g
       id="g2">
      <path
         style="fill:#020202"
         d="m 345.5,724.31194 c -12.12703,-1.06672 -40.75945,-5.93458 -52.40707,-8.90983 -30.18735,-7.711 -62.59201,-20.56379 -86.69248,-34.38518 C 172.16062,661.38072 143.23433,638.48921 118.91276,611.78145 69.791793,557.84124 42.019901,501.3809 29.49751,430 24.481834,401.40934 24.214767,349.13371 28.938094,320.5 33.573405,292.39985 42.326794,261.11641 51.742525,239 64.385903,209.30224 78.539924,184.66576 96.504974,161.0865 130.10193,116.99024 171.17985,83.161275 220.5,58.972671 251.17951,43.926192 272.53368,36.608725 305,30.016921 c 29.70531,-6.031221 34.59762,-6.461059 73.5,-6.457694 29.49942,0.0026 36.49302,0.285741 44.5,1.801921 5.225,0.989391 12.65,2.249197 16.5,2.799569 17.78536,2.542484 45.96799,10.579341 69.06936,19.696555 C 554.0226,65.795894 600.56606,97.76235 633.266,133.5 c 39.47822,43.14561 64.83133,87.73312 80.651,141.83768 8.89718,30.42909 12.94041,57.01511 13.78803,90.66232 0.82694,32.82656 -2.12509,61.512 -9.31339,90.5 -4.43552,17.88692 -5.24295,20.42755 -13.189,41.5 -16.94791,44.9448 -43.59574,86.39252 -77.18492,120.05255 -19.14104,19.18141 -24.21639,23.77746 -36.51772,33.06913 -4.95,3.73892 -10.125,7.7061 -11.5,8.81594 -1.375,1.10985 -2.9815,2.02791 -3.57,2.04014 -0.5885,0.0122 -2.97588,1.6536 -5.30529,3.64748 -9.29848,7.95916 -41.6359,25.2987 -65.11134,34.91313 -32.24995,13.20806 -68.57742,21.65399 -100.83113,23.44266 -16.62095,0.92174 -50.81042,1.1113 -59.68224,0.33091 z m 14.2397,-133.15379 c 3.26138,-1.01506 10.09672,-4.3697 15.18963,-7.45477 13.87408,-8.4043 15.33357,-8.41882 38.57067,-0.3838 11.57715,4.0032 12.44046,4.14954 24.5,4.15281 14.4379,0.004 20.3614,-1.73821 28.92425,-8.50675 5.68253,-4.49178 13.1105,-14.44939 15.63951,-20.96564 2.52807,-6.51383 3.72013,-7.55152 15.73468,-13.69711 18.73689,-9.58416 27.18457,-19.74825 28.39296,-34.16188 0.49869,-5.94839 -0.41302,-13.64603 -2.15341,-18.18142 -0.4601,-1.199 0.66055,-1.79812 5.10848,-2.73108 8.42449,-1.76706 12.80172,-5.27024 16.72839,-13.38809 3.07189,-6.35068 3.75092,-7.0629 9.44803,-9.90978 10.6397,-5.31672 16.93985,-14.82148 19.94918,-30.09648 2.62335,-13.31577 -0.42071,-27.55231 -7.91429,-37.01373 -1.70439,-2.15196 -2.93214,-4.04724 -2.72833,-4.21173 0.2038,-0.16449 3.29555,-2.24302 6.87055,-4.61895 18.27312,-12.14423 29.1741,-25.75003 38.68803,-48.28752 6.19628,-14.67834 7.58209,-22.84543 7.07612,-41.70223 -0.41129,-15.32794 -0.65672,-17.07074 -3.45506,-24.53481 -4.96971,-13.25582 -10.41735,-20.58705 -20.80644,-28.00055 -19.27723,-13.75594 -40.44322,-17.73659 -59.33725,-11.15944 -10.40548,3.62222 -16.75372,7.78888 -28.16865,18.48845 -9.536,8.93838 -10.02733,9.25623 -10.87316,7.03388 -14.08933,-37.01867 -37.44698,-64.40094 -68.053,-79.77879 -33.0505,-16.60607 -76.18039,-16.369 -110.65891,0.60824 -16.45971,8.10477 -33.5365,22.80117 -43.44007,37.38483 -12.04432,17.73604 -19.98742,40.97945 -22.882,66.95819 -0.58217,5.225 -1.76924,20.075 -2.63792,33 -1.74294,25.93278 -4.01432,41.34668 -7.91013,53.67908 -5.70475,18.05874 -10.7177,26.72712 -24.54067,42.43567 -5.82297,6.61728 -11.34785,14.04145 -13.19264,17.72789 -2.77173,5.53875 -3.16457,7.31317 -3.09944,14 0.0942,9.67811 2.49368,16.21831 9.8023,26.71844 5.93889,8.53228 6.21161,9.38625 4.06357,12.7241 -0.78392,1.21815 -2.40667,5.13982 -3.6061,8.71482 -5.42629,16.17348 2.25804,30.98233 20.59563,39.69081 l 7.43579,3.53124 0.0439,7.13897 c 0.0494,8.03262 1.48464,12.90815 5.50965,18.71624 2.79368,4.03128 13.06442,11.42998 19.44646,14.00859 5.00651,2.02284 24.71966,1.7765 32.4601,-0.40562 8.85665,-2.4968 10.48821,-2.20072 19.16159,3.47726 9.26474,6.06512 16.56197,9.56992 22.5546,10.83282 5.84001,1.23072 16.34733,0.41373 23.56341,-1.83216 z m -25.38106,-9.21724 c -3.37774,-1.07071 -8.32774,-3.49019 -11,-5.37661 -14.42159,-10.18065 -17.35633,-10.90534 -31.09793,-7.67919 C 287.05412,570.10747 279.89039,571 275.28594,571 c -6.89172,0 -8.79557,-0.41429 -14.11182,-3.07085 -6.82062,-3.40831 -11.35868,-8.22708 -13.82187,-14.67686 -1.44269,-3.77762 -1.47834,-5.16912 -0.30775,-12.01242 0.72817,-4.25693 1.19901,-7.96487 1.04632,-8.23987 -0.15269,-0.275 -4.8082,-2.24827 -10.34558,-4.38504 -20.93747,-8.07939 -25.49408,-19.12856 -15.70441,-38.08108 l 4.32558,-8.3742 -4.43321,-5.63368 c -11.5501,-14.67779 -14.66423,-21.7058 -13.59989,-30.69246 0.81684,-6.89695 2.8003,-10.45602 10.822,-19.4187 13.84035,-15.46387 21.30649,-26.79653 26.73982,-40.58768 6.52619,-16.56511 9.36778,-32.43532 11.60742,-64.82716 3.69683,-53.46714 7.82554,-70.89702 21.90871,-92.49047 18.43737,-28.26966 50.00163,-46.3575 84.08874,-48.18688 29.02122,-1.55751 52.0938,4.64161 74.38296,19.98516 9.36315,6.44547 23.31145,20.07881 29.35503,28.69219 6.98153,9.95015 15.21199,27.27645 20.87142,43.93731 2.8141,8.28448 5.40321,15.0495 5.75357,15.03338 0.35036,-0.0161 2.65207,-3.68035 5.11491,-8.14272 8.53434,-15.46321 25.53525,-30.43515 39.43448,-34.72819 13.98297,-4.3189 24.34096,-3.185 39.79087,4.35596 14.98586,7.31445 23.17904,16.30799 27.84911,30.56955 2.14067,6.53724 2.44765,9.29329 2.44765,21.97471 0,16.06595 -1.42038,23.78762 -6.80605,37 -8.97852,22.02651 -26.22536,40.58088 -44.66373,48.04979 -5.63778,2.28372 -6.63671,3.08251 -7.46456,5.96906 -0.80333,2.80104 -0.66238,3.50384 0.88378,4.40683 10.43971,6.09698 15.62292,14.02143 16.32482,24.95847 0.57109,8.89882 -0.99969,16.74634 -4.92385,24.59929 -3.69418,7.3927 -7.66898,10.56893 -15.4221,12.32366 -5.07485,1.14856 -5.97232,1.69092 -6.23404,3.76731 -0.57563,4.56684 -2.44214,9.42604 -4.86893,12.67559 -2.36137,3.16195 -2.63028,3.25 -9.92589,3.25 -13.31776,0 -17.03128,-3.95129 -16.12604,-17.15854 0.41368,-6.03541 0.21089,-8.02457 -0.9132,-8.95748 -4.99026,-4.14155 -3.601,7.84873 3.87207,33.4187 8.48542,29.03385 5.40077,37.09783 -18.93715,49.50605 -6.61582,3.37295 -13.02299,7.16562 -14.23815,8.42817 -1.21515,1.26254 -3.58604,5.59304 -5.26863,9.62333 -5.43038,13.00736 -16.18423,21.49209 -30.53835,24.0946 -8.03976,1.45768 -14.36588,0.33798 -30.57247,-5.4112 -21.34368,-7.57154 -25.08438,-7.39626 -41.67078,1.95257 -7.54068,4.25025 -13.71226,6.95885 -18.16179,7.97087 -8.5323,1.94063 -10.91868,1.87271 -18.48632,-0.52616 z m 25.27035,-11.73939 c 3.48519,-1.76741 7.4195,-4.74588 9.12071,-6.90483 11.18746,-14.19765 24.54646,-43.33491 36.69576,-80.03691 2.59263,-7.83212 5.1992,-14.54017 5.79237,-14.90677 0.75703,-0.46787 0.87376,1.53643 0.39163,6.72403 -1.89537,20.39346 -9.88666,46.89919 -20.57432,68.2415 -3.74446,7.47734 -6.56368,13.83958 -6.26495,14.13831 0.29873,0.29873 2.83064,0.55253 5.62648,0.56399 6.82558,0.028 14.79151,1.94115 28.58333,6.86481 8.70116,3.1063 12.99316,4.10657 17.63517,4.10992 12.44539,0.009 21.99715,-5.43638 26.78756,-15.27132 3.60083,-7.39269 5.79791,-21.86182 10.55768,-69.52886 2.26844,-22.71754 4.50238,-42.29254 4.96429,-43.5 0.80822,-2.11268 0.86782,-2.08787 1.58211,0.65871 1.05228,4.04618 -0.17373,67.07564 -1.54602,79.48132 -0.6288,5.68448 -0.91319,10.56552 -0.63196,10.84674 0.92623,0.92623 19.10904,-8.26727 22.85382,-11.55523 4.47956,-3.9331 7.28769,-10.69966 6.40127,-15.42469 -0.34917,-1.86122 -2.43586,-9.37124 -4.63709,-16.68894 -7.63314,-25.37539 -9.55712,-42.00175 -10.93698,-94.5133 -0.81378,-30.96948 -1.1445,-35.57579 -2.87187,-40 -3.30891,-8.47495 -4.41945,-19.39241 -3.65541,-35.93568 0.62697,-13.57558 0.47492,-16.00316 -1.53856,-24.56432 -2.83657,-12.06088 -10.06823,-33.26418 -14.08873,-41.30832 -12.43988,-24.88943 -32.79692,-44.41356 -57.35155,-55.00498 -13.12305,-5.66052 -19.15147,-6.6493 -40.66186,-6.66934 -17.01995,-0.0159 -19.39889,0.2031 -27.40039,2.52184 -27.6635,8.01657 -49.09385,24.64902 -61.37838,47.63678 -10.42744,19.51264 -13.9402,37.44345 -17.10736,87.32402 -3.17432,49.99351 -12.44124,74.94848 -38.45512,103.55612 -3.72293,4.09413 -7.65477,9.403 -8.73742,11.79749 -1.71738,3.79832 -1.82068,4.94625 -0.8099,9 1.43452,5.7532 4.61924,11.14663 10.41987,17.64639 5.26497,5.89954 4.50323,6.40242 12.76223,-8.42532 6.64195,-11.9246 14.9285,-31.77382 22.36606,-53.57468 8.59904,-25.20536 9.91215,-24.72323 3.9,1.43195 -7.27584,31.6527 -15.06002,50.83638 -30.8395,76.00221 -10.0985,16.10555 -10.99377,18.05718 -10.20703,22.25086 1.13333,6.04114 5.09407,9.24505 17.00854,13.7585 5.9859,2.26759 11.00809,3.99544 11.16041,3.83968 1.07271,-1.09692 11.27427,-28.53582 16.27824,-43.7832 7.51176,-22.88877 9.77534,-30.50565 16.18283,-54.45478 2.7892,-10.42512 5.33771,-19.20012 5.66335,-19.5 0.98035,-0.90276 -0.68341,13.58009 -3.2257,28.07941 -4.87433,27.79958 -16.35701,66.31609 -27.98645,93.87537 -7.21244,17.09193 -7.53971,19.2673 -3.68583,24.5 1.62029,2.2 4.3533,4.80909 6.07335,5.79798 l 3.12737,1.79798 2.01074,-3.29798 c 2.16755,-3.55517 2.62748,-7.3034 1.01822,-8.29798 -1.69805,-1.04945 -1.10539,-2.5 1.02144,-2.5 1.1849,0 2.49206,-1.0329 3.15866,-2.49594 0.93475,-2.05155 0.82447,-2.84153 -0.6194,-4.43698 -2.09118,-2.31074 -1.34635,-4.08529 1.41197,-3.36398 1.44558,0.37803 2.30492,-0.21824 3.22509,-2.23778 1.12749,-2.47459 1.02919,-2.90268 -0.97168,-4.2312 C 274.35821,528.32993 274.38861,527 277.3,527 c 4.09761,0 6.63464,-5.04363 3.2,-6.36163 -2.30891,-0.88601 -1.78086,-2.52978 1.04012,-3.2378 1.59516,-0.40035 3.26391,-2.05627 4.48571,-4.4512 2.50157,-4.90349 3.02777,-5.17209 7.9609,-4.06369 3.55769,0.79936 4.27593,0.66659 5.3046,-0.98057 1.66879,-2.67215 3.70867,-2.37227 3.70867,0.5452 0,4.38003 6.2275,5.55897 7.53888,1.4272 0.80588,-2.53912 2.46112,-1.3938 2.46112,1.70295 0,1.68668 0.82597,2.83875 2.62187,3.65702 2.37808,1.08353 2.83855,0.92286 4.95217,-1.72787 2.39512,-3.00377 2.86826,-2.7446 3.6308,1.98883 0.18861,1.17072 1.92385,2.75271 4.1896,3.81957 3.85899,1.81706 3.86638,1.832 3.29368,6.66749 -0.50024,4.22375 -0.29226,5.03753 1.61895,6.33457 l 2.19293,1.48822 -2.76229,1.07578 c -3.00233,1.16926 -6.02973,6.18526 -4.11776,6.82258 0.60304,0.20101 1.94774,0.99211 2.98824,1.75799 1.84675,1.35935 1.84417,1.40785 -0.10819,2.03609 -5.34711,1.72063 -6.76047,4.09595 -4.04995,6.80646 2.25398,2.25398 1.90147,3.69281 -0.90474,3.69281 -2.03445,0 -2.57233,0.62713 -3.14191,3.66324 -0.82244,4.38398 0.0463,5.97779 5.19399,9.52911 5.36357,3.70025 9.70045,4.77053 17.90261,4.4181 5.45774,-0.23451 8.35036,-0.98558 13.12899,-3.40893 z m 39.54639,-246.45531 c -7.77513,-3.7408 -9.50019,-26.19915 -2.43904,-31.75345 3.61589,-2.84426 8.40552,-2.57817 11.62979,0.6461 6.52446,6.52445 7.45351,24.5415 1.56894,30.42607 -2.15061,2.15061 -7.05968,2.46144 -10.75969,0.68128 z m 60.42964,-13.66789 C 454.04645,306.41385 452.5,302.54145 452.5,292.28695 c 0,-8.53985 0.18861,-9.41947 2.5,-11.65912 3.77633,-3.65912 6.17821,-3.9819 10.08149,-1.35483 8.8126,5.93125 10.58847,25.6422 2.80164,31.09631 -3.01076,2.10882 -4.72953,2.0484 -8.27811,-0.29099 z M 289.39179,560.36207 c 9.88146,-2.36276 11.90318,-2.54224 19.38086,-1.72057 6.54439,0.71912 8.58329,0.63454 9.43473,-0.39138 0.8113,-0.97755 0.5429,-1.88704 -1.06061,-3.59389 -2.72024,-2.89556 -2.69143,-3.30271 0.28658,-4.05015 3.21259,-0.80631 4.42152,-4.50782 2.04082,-6.24863 -1.46,-1.06757 -1.54781,-1.56379 -0.50011,-2.82619 0.69896,-0.84219 1.8604,-1.53126 2.581,-1.53126 0.72059,0 1.61827,-0.97075 1.99484,-2.15723 0.50669,-1.59643 0.0723,-2.61914 -1.671,-3.93411 l -2.35567,-1.77689 2.67758,-1.01802 C 324.49425,530.24179 327,527.36343 327,525.60093 c 0,-0.29181 -0.93018,-1.02838 -2.06706,-1.63682 -1.59798,-0.85521 -2.59539,-0.76007 -4.39528,0.41926 -2.14965,1.4085 -2.36694,1.37745 -2.83302,-0.40484 -0.27764,-1.0617 -1.73952,-2.49293 -3.24863,-3.18053 -2.46335,-1.12237 -2.89492,-1.02261 -4.22189,0.97592 -1.95035,2.93739 -3.23412,2.82015 -3.23412,-0.29536 0,-1.74317 -0.80028,-2.88607 -2.59275,-3.70277 -2.30033,-1.04811 -2.80084,-0.90545 -4.43795,1.26491 -1.96363,2.60325 -1.79105,2.73079 -3.43792,-2.5407 -0.68927,-2.20632 -5.26688,-1.86274 -6.52593,0.48981 -0.80911,1.51185 -0.68441,2.57052 0.51916,4.4074 1.55043,2.36626 0.63039,4.43465 -1.4113,3.17282 -0.48768,-0.30141 -1.45384,0.13536 -2.14703,0.97059 -1.25622,1.51366 -1.24133,1.57646 1.81092,7.63724 0.18775,0.37282 -0.92281,0.82282 -2.46791,1 -3.39481,0.38928 -4.53206,4.45486 -1.80412,6.44958 2.03254,1.48623 1.14567,3.37256 -1.58563,3.37256 -1.12197,0 -2.44946,1.06893 -3.09964,2.49594 -0.92574,2.03177 -0.82836,2.83723 0.52362,4.33115 1.79416,1.98253 1.29707,3.17291 -1.32497,3.17291 -1.48859,0 -5.01855,5.65093 -5.01855,8.03393 0,1.53948 3.59406,1.14909 15.39179,-1.67186 z m 239.59387,-88.35439 c 2.14779,-1.14947 4.00455,-6.12731 4.19723,-11.25249 0.10435,-2.77565 -0.6825,-4.52094 -3.54693,-7.86738 C 525.73587,448.33143 523,440.98217 523,435.0619 c 0,-8.76465 4.46046,-16.26281 13.20812,-22.20323 6.09027,-4.13582 6.92124,-5.41198 4.04188,-6.20722 -1.7674,-0.48814 -10.9554,-2.01045 -12.68643,-2.10195 -1.28654,-0.068 -1.84488,2.38848 -7.02868,30.92379 -5.2492,28.89534 -5.55786,33.69678 -2.31238,35.97001 2.51527,1.76176 7.98946,2.04881 10.76315,0.56438 z m 20.59808,-21.05943 c 8.56611,-5.29415 13.10399,-26.75882 7.85277,-37.14449 C 554.03834,407.083 549,403.61695 549,408 c 0,1.1 0.45,2 1,2 2.00381,0 0.9723,4.05358 -1.25,4.91216 -8.36071,3.23016 -11.18796,4.82262 -13.75718,7.7488 -7.64001,8.70149 -5.65321,23.29779 3.85499,28.32113 4.70474,2.4856 6.66941,2.47941 10.73593,-0.0338 z M 512.93506,439.75 C 514.2753,433.21591 520,401.79442 520,400.97226 c 0,-0.33219 -1.78622,-1.60789 -3.96937,-2.83489 -2.18316,-1.227 -6.21992,-4.00986 -8.97058,-6.18414 C 504.30938,389.77895 501.5956,388 501.02942,388 500.42315,388 500,390.83178 500,394.88907 c 0,8.96267 1.86838,41.93495 2.54562,44.92386 0.48197,2.12714 5.09533,5.04707 8.13348,5.14793 0.64851,0.0215 1.66369,-2.32336 2.25596,-5.21086 z m 29.46711,-44.54783 c 1.0871,-5.17877 0.55123,-5.82482 -5.57559,-6.72196 l -4.67342,-0.68433 -0.69149,4.61114 c -0.9089,6.06097 0.48569,7.79312 5.95186,7.39249 3.93844,-0.28866 4.11915,-0.45519 4.98864,-4.59734 z m -17.56269,-4.74922 C 525.47777,389.05207 526,387.70658 526,387.46298 c 0,-0.2436 -3.9375,-2.45357 -8.75,-4.91104 -4.8125,-2.45747 -10.2125,-5.43118 -12,-6.60823 -4.96162,-3.2672 -3.9313,-0.48891 2,5.39308 4.78854,4.74872 14.13234,11.66321 15.76093,11.66321 0.36742,0 1.19027,-1.14617 1.82855,-2.54705 z m 26.81033,-8.84788 c 7.8011,-2.07712 14.90846,-6.38176 22.97503,-13.91504 8.81896,-8.23594 12.87649,-13.63568 18.21553,-24.24114 6.98694,-13.87885 9.43537,-23.85847 9.55584,-38.94889 0.12898,-16.15483 -1.86536,-24.97963 -7.57879,-33.53555 C 587.51804,260.03353 579.75144,255.60549 568,255.67477 549.99992,255.7809 532.00955,269.21201 518.67426,292.5 c -6.06605,10.5934 -9.48024,21.24235 -10.90856,34.02404 -1.99169,17.82315 1.23149,31.87177 9.82412,42.81968 9.02043,11.49295 20.89333,15.76711 34.05999,12.26135 z M 538,374.12425 c -10.03743,-3.3027 -17.63801,-10.70276 -20.98714,-20.43346 -2.91668,-8.47425 -3.63833,-21.92025 -1.75506,-32.70081 3.97402,-22.74889 18.88659,-44.40786 36.65536,-53.23813 5.58756,-2.77677 7.45423,-3.19122 14.5,-3.21945 6.07914,-0.0244 9.07168,0.4559 12.05368,1.93444 5.47923,2.71671 10.67873,8.17753 13.85486,14.55121 2.58289,5.18318 2.6783,5.96948 2.6783,22.07296 0,14.11979 -0.32425,17.75691 -2.09982,23.55365 -6.00573,19.60699 -20.58747,38.20249 -35.20393,44.89413 -5.75354,2.63405 -15.61458,3.92848 -19.69625,2.58546 z m 20,-7.90814 c 7.13258,-3.31606 18.39083,-14.55265 23.76182,-23.71611 11.59505,-19.78232 13.43905,-45.30247 4.49799,-62.25 -1.67117,-3.16764 -4.00722,-4.64009 -2.93705,-1.85127 3.59524,9.36903 3.41037,33.85538 -0.33673,44.60127 -7.20818,20.67154 -17.97097,35.1745 -32.23603,43.43834 -2.6125,1.51344 -4.75,2.9697 -4.75,3.23614 0,0.9543 6.59991,-0.94778 12,-3.45837 z M 529.26161,328.75 c 0.82247,-2.16171 -1.1335,-5.92182 -2.89967,-5.57424 -2.64622,0.52077 -3.97383,3.38204 -2.43151,5.24042 1.57,1.89173 4.66471,2.08551 5.33118,0.33382 z m 5.41692,-20.80139 c 7.32221,-11.30018 12.5614,-17.81594 17.43593,-21.68432 5.52782,-4.38683 7.76992,-7.77991 6.18689,-9.36294 -1.72999,-1.72999 -11.13468,3.71561 -17.30184,10.01827 -7.80624,7.97776 -15.01219,22.2778 -13.37541,26.54318 1.00007,2.60614 2.60613,1.35074 7.05443,-5.51419 z m -26.16383,56.78957 c -5.01773,-10.86021 -5.79025,-15.70854 -5.27233,-33.08918 0.4982,-16.71889 2.23619,-23.79434 9.30418,-37.87777 10.20733,-20.33881 23.38124,-33.3623 40.91765,-40.45049 5.87046,-2.37283 7.49218,-3.40025 6.1687,-3.90812 -3.05618,-1.17276 -15.85164,0.30414 -21.6329,2.49696 -7.33609,2.78256 -17.7451,10.76093 -24.22455,18.5678 -22.40412,26.99397 -28.82886,61.48121 -16.00334,85.90403 3.31389,6.31044 12.70314,17.47668 13.7854,16.39441 0.25235,-0.25235 -1.11692,-3.86929 -3.04281,-8.03764 z"
         id="path2" />
    </g>
  </g>
</svg>
