<?xml version="1.0" encoding="UTF-8" standalone="no"?>
<!-- Created with Inkscape (http://www.inkscape.org/) -->

<svg
   version="1.1"
   id="svg1"
   width="768"
   height="768"
   viewBox="0 0 768 768"
   xmlns="http://www.w3.org/2000/svg"
   xmlns:svg="http://www.w3.org/2000/svg">
  <defs
     id="defs1" />
  <g
     id="g1">
    <g
       id="g2">
      <path
         style="fill:#030303"
         d="m 366.5,732.90563 c -9.9,-0.41476 -20.925,-1.20457 -24.5,-1.75514 -3.575,-0.55057 -11.225,-1.72619 -17,-2.61247 -5.775,-0.88629 -12.075,-2.03356 -14,-2.54948 -1.925,-0.51592 -7.325,-1.87455 -12,-3.01917 -24.20279,-5.92576 -61.72499,-20.79119 -82.5,-32.6846 -32.36196,-18.52678 -53.51837,-34.38692 -78.34821,-58.7346 C 80.827556,575.33909 46.465381,506.15415 35.315912,424.5 c -2.73709,-20.04533 -2.481234,-67.67258 0.472741,-88 2.37762,-16.36131 4.216497,-26.46292 6.644389,-36.5 2.638278,-10.90683 8.256649,-29.73188 9.621023,-32.23643 C 52.574329,266.80853 53,265.53712 53,264.93821 53,260.33749 72.754457,216.98178 80.994107,203.49867 85.763188,195.6947 95.738861,180.27241 97.106228,178.5895 97.593097,177.99027 101.22208,173.225 105.17064,168 137.20909,125.60456 182.03269,88.80953 229,66.350316 c 33.44985,-15.995324 57.65084,-23.939805 91,-29.872651 4.675,-0.831687 10.525,-1.935473 13,-2.452858 16.25153,-3.397289 63.37808,-4.274746 88,-1.638487 19.02626,2.037135 45.78391,6.835538 56,10.042383 2.475,0.776906 7.2,2.17173 10.5,3.099609 7.60019,2.136988 28.96412,9.82756 36.3611,13.08924 31.58473,13.927225 59.72057,31.222723 86.21121,52.995268 9.31699,7.65759 29.84512,27.61346 37.48601,36.44102 7.94573,9.17974 9.1273,10.6389 16.96124,20.94616 4.38924,5.775 8.23135,10.725 8.53801,11 0.71388,0.64016 14.73864,23.04977 18.19659,29.07558 4.13075,7.19826 14.36555,27.86684 16.7989,33.92442 10.16521,25.30522 17.11819,48.39229 21.90184,72.72415 2.23111,11.34846 2.41066,12.66068 5.0321,36.77585 1.23433,11.3549 1.2551,48.11691 0.0339,60 -2.22725,21.67251 -3.3712,28.77727 -8.0506,50 -2.27506,10.31824 -7.77256,29.24641 -9.00363,31 -0.38612,0.55 -1.46871,3.475 -2.40576,6.5 -0.93705,3.025 -2.10802,6.4 -2.60216,7.5 -0.49413,1.1 -2.25588,5.4838 -3.91499,9.74179 -1.6591,4.25798 -3.45727,8.53298 -3.99593,9.5 -0.53865,0.96701 -2.95544,5.80821 -5.37063,10.75821 -5.54428,11.36317 -7.14122,14.19865 -16.52718,29.34518 -28.46925,45.94209 -70.06025,87.00303 -117.65002,116.15063 -17.91288,10.97121 -53.53241,27.72337 -67.70924,31.84422 -1.80992,0.52609 -8.37397,2.5723 -14.58678,4.54711 -6.21281,1.97482 -15.66281,4.53202 -21,5.68266 -24.34985,5.24958 -34.07407,6.64568 -51.70398,7.42307 -7.15,0.31528 -15.925,0.7068 -19.5,0.87004 -3.575,0.16325 -14.6,-0.0425 -24.5,-0.45728 z M 355.88987,685.5109 C 357.05044,683.04189 358,680.72868 358,680.37043 c 0,-0.35825 0.85635,-2.50066 1.903,-4.7609 2.94066,-6.35034 6.097,-14.73336 6.097,-16.19319 0,-0.72433 -0.75387,-1.73884 -1.67526,-2.25448 -2.3175,-1.29694 -15.70157,5.85603 -16.12761,8.61922 -0.37654,2.44215 2.2635,3.57795 4.96096,2.13431 1.10726,-0.59259 2.20614,-0.8845 2.44195,-0.64869 0.39359,0.3936 -3.45334,9.88646 -5.66116,13.96973 -1.08267,2.00237 -1.25455,7.11457 -0.27221,8.0969 1.83807,1.83808 4.2624,0.349 6.2232,-3.82243 z M 479.9322,671.53506 c 3.51739,-1.81891 8.81072,-9.64781 9.68918,-14.3304 0.75408,-4.01955 -0.43082,-8.17608 -2.62138,-9.19565 -0.825,-0.38399 -2.50639,-1.2181 -3.73643,-1.85358 -3.19682,-1.6516 -5.05844,-1.44532 -9.01295,0.99869 -7.10048,4.38835 -10.75706,18.54899 -6.07631,23.53143 2.5489,2.71317 7.46684,3.0685 11.75789,0.84951 z m -7.56004,-5.00762 C 470.81513,662.46989 476.85991,650 480.38383,650 c 6.42104,0 2.86038,12.7311 -4.6518,16.63244 -2.44195,1.26819 -2.83768,1.25582 -3.35987,-0.105 z M 304.19085,640.5 c 5.06048,-15.1032 5.6246,-18.57835 3.32556,-20.48638 -1.21922,-1.01187 -2.86737,-0.35362 -9.2491,3.69397 -4.27102,2.70889 -7.904,5.64441 -8.07328,6.52339 -0.4673,2.4265 3.2837,3.09045 6.89863,1.22111 3.67146,-1.89859 3.73214,-2.9702 -0.53869,9.5128 -3.65496,10.68293 -3.40878,14.44478 0.90488,13.82729 1.66995,-0.23904 2.89423,-2.83823 6.732,-14.29218 z m 125.0079,11.75 c 5.5107,-5.88995 7.1645,-12.37846 3.7071,-14.54445 -3.2714,-2.04947 -12.41871,9.61725 -11.1986,14.28299 0.42641,1.63058 1.41872,2.29023 4.35566,2.89546 0.3096,0.0638 1.72073,-1.1215 3.13584,-2.634 z m -47.64631,-9.14567 c 2.77885,-3.43427 6.33915,-8.57518 7.91178,-11.42423 1.57264,-2.84906 4.35132,-7.8801 6.17485,-11.1801 3.52082,-6.37156 4.19525,-9.5 2.04802,-9.5 -4.20463,0 -23.67114,30.27571 -23.6829,36.83333 -0.006,3.4699 1.86036,2.30047 7.54825,-4.729 z m 113.88226,-11.2091 c 3.71644,-4.41673 15.57597,-24.80291 20.5012,-35.24094 3.99825,-8.47349 4.66823,-11.52886 2.62193,-11.95711 C 515.66725,584.09223 491,626.9766 491,632.60685 c 0,3.22086 1.30147,3.01202 4.4347,-0.71162 z m -269.32463,-2.85278 c 4.0771,-4.49975 7.41462,-14.37708 6.40744,-18.96272 C 231.69153,606.31907 228.4527,603 225.60893,603 c -3.09725,0 -8.5498,3.78852 -11.27704,7.83548 -3.18472,4.7258 -4.85033,13.49867 -3.2818,17.28544 2.91801,7.0447 9.16554,7.42699 15.05998,0.92153 z m -8.76521,-3.58614 c -1.59312,-4.1516 2.3024,-13.12679 6.72468,-15.49353 1.76083,-0.94237 1.93046,-0.67422 1.93046,3.0517 0,4.09077 -1.89797,8.95358 -4.77558,12.23552 -1.89284,2.15881 -3.10557,2.2233 -3.87956,0.20631 z m 146.74836,-24.67348 c 3.62627,-1.33143 9.77851,-4.53836 13.67164,-7.12651 3.89314,-2.58815 8.50217,-5.20205 10.24229,-5.80866 4.32359,-1.50721 12.76179,-0.36687 19.57212,2.64498 22.10557,9.77613 39.26385,10.72624 55.11941,3.05212 9.86325,-4.77382 16.41726,-11.81108 22.1137,-23.7442 2.64131,-5.53311 5.50159,-10.11948 6.65889,-10.67731 1.1158,-0.53783 6.7922,-3.22899 12.61423,-5.98036 8.5347,-4.03332 11.55723,-6.06572 15.60125,-10.49052 10.15447,-11.11062 13.44998,-24.55303 9.11391,-37.1758 -0.95869,-2.79087 -0.6116,-3.61855 4.5124,-10.76035 6.56057,-9.14406 9.641,-16.78028 10.39443,-25.7672 0.67086,-8.00202 -0.97813,-14.20717 -7.69154,-28.94326 -7.5843,-16.6477 -14.99306,-41.72144 -19.02004,-64.37023 C 515.90696,369.51099 514.10191,354.825 512.9847,343 511.86748,331.175 510.49375,318.8 509.93197,315.5 504.49698,283.57423 494.15259,253.81298 481.95186,235 465.59498,209.77844 440.98454,190.80796 412.52878,181.48654 400.19015,177.4447 390.46263,176 375.58664,176 c -36.16496,0 -64.65681,11.2446 -88.68383,35 -13.74517,13.58978 -23.2697,29.54295 -29.25451,49 -5.74219,18.66829 -6.85792,26.48772 -9.13197,64 -2.41933,39.90888 -5.79526,56.60519 -15.26581,75.5 -6.01665,12.00389 -9.05988,16.27396 -19.52331,27.39383 -9.98073,10.60689 -13.54462,16.73975 -14.77146,25.4192 -1.74657,12.35646 3.1964,24.70162 15.6269,39.02847 l 7.67121,8.84149 -0.86969,5.65851 c -2.71091,17.63818 0.23947,27.84535 10.93322,37.82469 10.4313,9.73442 20.3914,13.62982 39.14776,15.31069 13.43163,1.2037 20.38509,4.19273 25.03474,10.76151 13.73953,19.41047 17.52056,23.26166 28.19486,28.7181 11.87114,6.06822 26.80539,6.95004 39.39847,2.32634 z M 339,592.9628 c -11.80458,-2.46473 -24.07604,-12.04023 -30.87966,-24.09558 -7.2035,-12.76389 -19.31883,-19.83864 -34.05184,-19.88458 -12.88479,-0.0402 -26.14098,-4.65438 -34.35203,-11.95721 -8.54279,-7.59788 -10.69761,-14.87792 -8.17162,-27.60764 1.57432,-7.93379 1.56217,-8.38334 -0.33979,-12.57289 -1.08487,-2.38969 -5.16695,-7.88398 -9.0713,-12.20951 C 212.10106,473.52039 209.49494,467.8113 209.5186,457 c 0.0229,-10.4473 0.95574,-12.36856 11.17037,-23.0054 12.98883,-13.52572 20.24985,-24.53551 26.24313,-39.79213 7.10055,-18.07532 9.71968,-32.99755 11.61976,-66.20247 1.80949,-31.62186 3.74827,-47.15966 7.59399,-60.86006 11.74227,-41.83185 42.72915,-70.36142 85.57927,-78.79269 12.60651,-2.48049 35.70272,-2.24509 47.9648,0.48886 22.66501,5.05337 42.08549,16.03811 58.92621,33.33022 21.39465,21.96812 33.47784,50.50878 41.81346,98.76406 0.32591,1.88671 1.49748,13.13671 2.60348,25 2.24519,24.08253 3.54034,32.04488 8.63229,53.06961 4.4989,18.576 9.04147,32.26537 14.78561,44.55749 8.00109,17.12186 8.99136,22.9372 5.58959,32.82463 -2.09356,6.08502 -4.40257,9.8478 -9.76935,15.92016 -4.81613,5.44932 -5.38786,7.57754 -3.7195,13.8456 2.06084,7.74268 1.80808,16.46066 -0.63356,21.85212 -2.7743,6.12602 -10.60951,13.24782 -17.65046,16.04335 -11.83728,4.69987 -17.23369,7.92703 -20.27424,12.12439 -1.6464,2.27279 -2.99345,4.87646 -2.99345,5.78595 0,3.30072 -5.20085,11.97673 -9.62291,16.05284 -5.78722,5.33447 -13.0045,8.61417 -22.02897,10.01048 -9.35872,1.44803 -16.20066,0.1959 -31.24881,-5.71879 -12.70442,-4.99348 -21.53778,-6.34937 -28.71392,-4.40748 -2.26303,0.61239 -7.64684,3.44232 -11.96402,6.28874 -4.31717,2.84642 -10.06858,6.01853 -12.7809,7.04913 -5.93335,2.25449 -15.48324,3.01979 -21.64047,1.73419 z m 19.3485,-10.67953 c 6.64021,-2.59389 11.59602,-7.12934 17.22336,-15.76244 12.37617,-18.98672 24.10134,-46.42419 33.44836,-78.27083 1.81604,-6.1875 3.67941,-11.25 4.14083,-11.25 2.51612,0 -0.74854,22.73439 -5.66294,39.43547 -4.44612,15.10971 -10.43372,29.87658 -16.9101,41.70444 l -5.27836,9.63991 9.59517,0.4298 c 8.37384,0.37509 10.86805,0.94971 19.59518,4.51439 14.09292,5.75638 16.7426,6.46435 24.3056,6.49428 12.24615,0.0485 20.58529,-4.03469 26.14513,-12.80166 4.83793,-7.62861 6.44822,-17.14204 11.07276,-65.41663 4.02823,-42.04975 5.62435,-54 7.21245,-54 1.39895,0 0.34237,68.13863 -1.2834,82.76684 -0.68871,6.19676 -1.03958,11.47945 -0.77972,11.73932 0.46615,0.46615 14.20626,-5.43006 20.63418,-8.85462 4.42681,-2.35845 9.193,-9.98931 9.193,-14.71837 0,-2.02139 -1.57722,-8.79579 -3.50494,-15.05422 C 497.94112,471.86166 496.05925,455.30869 495.00321,393 c -0.86204,-50.86199 -1.42492,-59.14788 -5.53649,-81.5 -8.10308,-44.05163 -24.63196,-74.91199 -50.60577,-94.48384 -35.92382,-27.06941 -85.3212,-28.86477 -123.03721,-4.47181 -28.55788,18.46991 -43.49315,48.1793 -46.72995,92.95565 -0.55662,7.7 -1.28126,19.85 -1.6103,27 -2.26778,49.27743 -13.53958,80.43301 -38.34846,105.99623 -8.98934,9.26266 -11.1323,12.83199 -11.10933,18.50377 0.025,6.16743 2.79142,11.74696 10.194,20.5599 3.45417,4.11226 7.71968,9.5098 9.47892,11.99455 l 3.19861,4.51771 5.12684,-7.28608 c 13.85965,-19.69683 25.82105,-43.83357 35.52499,-71.68535 3.27302,-9.39405 6.34641,-17.08474 6.82977,-17.09041 2.14177,-0.0251 -2.87322,24.77574 -8.25932,40.84521 -7.13628,21.29118 -17.79592,41.35362 -31.92711,60.08982 C 240.83798,508.6964 240,510.49202 240,516.5 c 0,8.23721 3.71866,13.75693 12.17541,18.0723 5.52823,2.82098 10.63269,4.02719 20.82459,4.92095 20.67895,1.81339 32.75281,8.48229 42.07195,23.23811 4.97251,7.8734 10.9299,14.48863 15.70622,17.44056 7.73977,4.78344 18.60072,5.61517 27.57033,2.11135 z M 305,528.25882 c 0,-1.12814 2.28364,-6.93538 5.07477,-12.90499 6.40751,-13.70429 14.22163,-32.06915 20.89333,-49.10383 2.85418,-7.2875 5.60398,-13.25 6.11066,-13.25 3.71848,0 -5.46285,33.81206 -13.60992,50.12127 -4.27191,8.55172 -13.31857,22.52778 -16.36923,25.28858 C 305.03163,530.28135 305,530.27907 305,528.25882 Z m 95.1868,-197.7551 c -5.99574,-5.04508 -8.17184,-17.50216 -4.61171,-26.39978 1.29066,-3.22569 2.61065,-4.70143 5.15678,-5.76527 3.06959,-1.28256 3.79755,-1.24488 7.06727,0.36575 2.00485,0.98757 4.5079,3.29449 5.56233,5.1265 2.13546,3.71022 3.31138,14.76892 2.20025,20.69176 -1.50589,8.02711 -9.32734,11.06975 -15.37492,5.98104 z m 62.82827,-12.25527 c -8.8207,-4.42549 -12.00195,-22.35686 -5.36562,-30.2437 3.96016,-4.70638 10.01941,-3.70959 13.94297,2.29371 6.22992,9.53216 4.95945,25.30654 -2.30474,28.61633 -2.90694,1.32448 -2.14277,1.40566 -6.27261,-0.66634 z m 56.9733,161.76968 c 6.01921,-9.38013 5.59509,-16.1239 -2.04507,-32.51813 -2.30684,-4.95 -6.40894,-15.525 -9.11579,-23.5 l -4.92155,-14.5 0.53253,19.5 c 0.29288,10.725 1.20748,23.775 2.03244,29 1.90186,12.04579 4.48877,24.76379 5.6679,27.86516 0.88008,2.31476 0.98079,2.33656 2.87517,0.62217 1.07973,-0.97714 3.3182,-3.88829 4.97437,-6.4692 z m 60.40405,116.18991 c 1.37501,-2.65898 2.75268,-6.24434 8.21056,-21.36788 3.71072,-10.28223 2.13126,-11.79152 -7.59973,-7.26208 -6.18424,2.87856 -9.00325,5.09441 -9.00325,7.07691 0,1.62601 4.30919,1.78509 7.15139,0.26399 2.36575,-1.26611 3.57406,-0.52176 2.12143,1.30685 -0.55669,0.7008 -1.57946,3.07417 -2.27282,5.27417 -0.69336,2.2 -1.60521,4.45 -2.02636,5 -0.42114,0.55 -1.251,2.77726 -1.84414,4.94947 -0.89715,3.28554 -0.80452,4.25215 0.55102,5.75 2.21343,2.44582 3.02246,2.27559 4.7119,-0.99143 z M 245.84301,591.25 C 250.75622,582.81394 255,574.03756 255,572.31285 c 0,-1.76962 -2.50667,-1.66332 -4.35466,0.18467 -4.38495,4.38495 -13.18104,21.66409 -12.25575,24.07535 1.14597,2.98635 3.65956,1.19127 7.45342,-5.32287 z m -93.27036,-28.28517 c 6.80592,-3.29469 11.4527,-11.36039 11.39555,-19.77993 -0.0339,-4.9951 -1.14775,-7.15494 -4.65246,-9.02156 -7.0685,-3.7647 -15.17455,1.58888 -19.3957,12.80976 -2.92627,7.77875 -1.097,14.80209 4.43696,17.03532 3.11474,1.25695 3.58738,1.19692 8.21565,-1.04359 z m -6.57827,-6.4716 C 143.36025,553.3193 150.35342,539 154.53762,539 c 2.07834,0 3.59932,3.58474 2.85528,6.72948 -0.96534,4.08006 -7.22129,12.1222 -9.52046,12.23872 -0.34515,0.0175 -1.19028,-0.64625 -1.87806,-1.47497 z m 54.71211,-10.00171 c 2.83981,-5.0142 3.05137,-9.49152 0.4485,-9.49152 -3.48688,0 -7.79106,7.32955 -6.74701,11.4894 0.93134,3.71072 3.53276,2.88555 6.29851,-1.99788 z M 605.793,533.5 c 10.32069,-20.60155 16.37638,-33.57497 29.75701,-63.75 5.58778,-12.60115 3.46295,-13.26654 -3.19337,-1 -2.61146,4.8125 -6.31796,11.22054 -8.23668,14.24009 -3.76014,5.91745 -22.16071,41.99139 -26.0191,51.00991 -3.90598,9.12976 -5.33509,13.94721 -4.65965,15.70738 1.13406,2.95532 5.85557,-3.24001 12.35179,-16.20738 z M 645,532.96657 c 6.04849,-4.28484 10.01947,-11.74176 9.97776,-18.73681 C 654.94381,508.53405 650.3444,504 644.60054,504 c -6.07286,0 -14.5711,12.1239 -14.59077,20.81574 -0.0125,5.50885 1.35278,8.00329 5.31897,9.71828 3.48519,1.50701 5.87901,1.11904 9.67126,-1.56745 z m -7.33333,-4.63324 c -2.94044,-2.94043 3.4469,-16.4944 8.08333,-17.15288 1.96966,-0.27974 2.25,0.12137 2.25,3.21921 0,4.33983 -3.28958,10.90483 -6.52711,13.02615 -2.72544,1.78577 -2.88898,1.82477 -3.80622,0.90752 z M 563.80563,526.25 c 2.5732,-3.64417 10.82684,-19.18058 11.62449,-21.88158 0.68647,-2.32453 -1.31588,-3.73322 -3.89806,-2.74235 -2.73414,1.04919 -13.36112,25.21154 -11.78266,26.79 1.11175,1.11174 2.12305,0.5717 4.05623,-2.16607 z M 173.62492,511.33128 c 7.11992,-12.09777 15.34244,-29.23917 15.3607,-32.02226 0.0356,-5.41875 -4.33118,-2.54652 -8.8456,5.8182 -13.51203,25.03632 -17.01969,33.13801 -15.76398,36.41033 1.00205,2.61131 3.00828,0.3974 9.24888,-10.20627 z M 663.60082,474.75 c 8.21062,-14.48066 24.07296,-46.64521 24.85774,-50.4048 0.75404,-3.61232 -0.51104,-4.92266 -3.30764,-3.42597 -1.90314,1.01853 -19.46931,35.55835 -24.70707,48.58077 -1.54852,3.85 -3.1299,7.45 -3.51419,8 -0.38429,0.55 -1.01143,2.4625 -1.39364,4.25 -1.38687,6.48602 2.16732,3.40109 8.0648,-7 z m -520.8367,-8 C 144.44335,464.66972 152,441.25176 152,438.12813 c 0,-1.60278 -0.61041,-3.14839 -1.35648,-3.43468 -1.67683,-0.64346 -12.60777,5.29528 -14.07281,7.6457 -1.47497,2.36636 0.83244,3.69241 4.56321,2.62244 2.66365,-0.76392 3.99832,0.22061 1.98548,1.46462 -0.48433,0.29933 -1.11628,1.56338 -1.40433,2.80901 -0.28805,1.24563 -1.45728,5.38012 -2.59829,9.18776 -1.53686,5.12866 -1.7891,7.26692 -0.97322,8.25 1.3844,1.6681 3.31031,1.7002 4.62056,0.077 z m -45.052814,-10 c 0.577096,-1.2375 1.832008,-4.275 2.788694,-6.75 0.95669,-2.475 2.10512,-5.4 2.55208,-6.5 0.74266,-1.82774 1.3548,-3.32988 4.80739,-11.79705 1.55892,-3.82313 1.45651,-4.46347 -0.917,-5.73374 -1.69733,-0.90838 -3.31664,-0.45231 -9.249996,2.60522 -7.895422,4.06861 -9.107361,5.22074 -7.512827,7.14203 1.428128,1.72079 3.897014,1.61857 6.597847,-0.27316 2.913122,-2.04043 2.806454,-1.0078 -0.693175,6.71047 -3.182555,7.01897 -4.630526,12.98045 -3.725582,15.3387 0.870263,2.26787 4.161637,1.81131 5.352569,-0.74247 z m 514.755044,-8.56427 c 0.92894,-2.57715 2.06016,-5.58573 2.51383,-6.68573 5.96582,-14.46532 7.01718,-20.81269 3.51982,-21.25019 -2.81734,-0.35244 -14.92903,6.14633 -15.34378,8.233 -0.58189,2.92759 1.37557,3.95377 4.82021,2.52695 3.70228,-1.53353 4.59195,-0.9403 3.01336,2.00932 C 609.38871,436.01072 605,448.21394 605,449.67424 c 0,1.84808 2.90972,4.29763 4.41763,3.719 0.74786,-0.28699 2.11979,-2.63037 3.04872,-5.20751 z M 165.84988,416.75 c 5.11389,-6.85827 11.27167,-17.8973 14.53853,-26.06316 2.82328,-7.0571 3.1664,-9.22592 1.61159,-10.18684 -0.55,-0.33992 -1,-0.24938 -1,0.2012 0,0.45058 -1.03036,1.93964 -2.28969,3.30902 C 172.88849,390.34079 160,415.21628 160,420.12212 c 0,3.14004 1.74346,2.13504 5.84988,-3.37212 z m -39.32447,-19.10726 c 2.62857,-4.47851 5.86949,-9.94274 7.20205,-12.14274 6.6847,-11.03621 11.33189,-19.14301 23.5031,-41 11.55433,-20.7492 24.76208,-47.90736 23.77749,-48.89195 -0.53609,-0.53609 -1.10765,-0.77972 -1.27013,-0.54138 C 175.68824,301.00713 164,319.1107 164,319.44267 c 0,0.25139 -1.35,2.45739 -3,4.90222 -1.65,2.44484 -3,4.72705 -3,5.07157 0,0.34453 -1.06122,2.30427 -2.35827,4.35498 C 151.99368,339.53923 139.65142,360.75874 135.7328,368 124.3931,388.95481 120,397.46235 120,398.46768 c 0,0.62278 -0.39564,1.55982 -0.8792,2.08232 -1.52516,1.64798 -3.29473,8.35956 -2.53022,9.59656 0.95657,1.54776 3.75396,-1.973 9.93483,-12.50382 z m 504.27231,2.27724 C 636.12286,392.00183 681,301.95154 681,299.18428 c 0,-2.89349 -2.158,-0.58566 -6.607,7.06572 -2.63839,4.5375 -5.09293,8.475 -5.45454,8.75 -0.3616,0.275 -2.18319,3.25873 -4.04796,6.63052 -1.86478,3.37178 -5.79902,10.34678 -8.74276,15.5 -7.93182,13.88517 -25.22523,48.07309 -29.49263,58.30498 -5.58186,13.38353 -3.41774,15.72624 4.14261,4.48448 z M 571.64438,386.22149 C 574.51949,379.7789 574.59915,378 572.01254,378 c -3.68947,0 -9.2352,11.37142 -7.61052,15.60526 0.58495,1.52435 0.82137,1.5056 2.76321,-0.21914 1.16795,-1.03737 3.18356,-4.26145 4.47915,-7.16463 z M 215.70871,382.75 c 6.64396,-7.26613 7.00613,-17.1168 0.53922,-14.66629 -2.66822,1.01106 -8.24793,9.40782 -8.24793,12.41207 0,4.62778 4.36993,5.90566 7.70871,2.25422 z m 458.44136,-5.82622 c 2.91644,-4.79132 3.66995,-10.39513 1.50925,-11.22427 -1.96776,-0.7551 -3.14183,0.30967 -5.52499,5.01065 -2.96162,5.84206 -2.80329,12.01283 0.28184,10.98445 0.57265,-0.19088 2.2529,-2.33776 3.7339,-4.77083 z m -584.738925,-0.0326 c 3.046243,-2.39617 6.924074,-9.93011 6.422875,-12.47851 -0.183711,-0.93409 -1.125403,-2.19659 -2.092649,-2.80554 -2.654868,-1.67143 -6.661293,1.05719 -9.38657,6.39282 -2.578397,5.04807 -2.929254,8.02555 -1.154801,9.8 1.708692,1.70869 3.152061,1.49751 6.211145,-0.90877 z M 551.33018,360.75 c 1.33759,-1.7875 4.45554,-6.85 6.9288,-11.25 2.47325,-4.4 7.74471,-13.77261 11.71436,-20.82803 11.90565,-21.16039 24.3523,-46.74633 23.26794,-47.83069 -1.32785,-1.32785 -5.2843,3.9155 -14.61789,19.37257 C 571.20942,312.4919 560,331.95237 560,332.54557 c 0,0.15905 -1.98392,3.64483 -4.40871,7.74619 -5.5037,9.30912 -10.87928,21.43325 -10.07792,22.72987 1.14323,1.84979 3.38907,0.97273 5.81681,-2.27163 z m 58.89655,-11.5 c 0.84519,-0.9625 1.86896,-2.875 2.27505,-4.25 0.40608,-1.375 1.97048,-5.2 3.47645,-8.5 7.19372,-15.76354 7.83655,-18.84699 4.02177,-19.29095 -2.57914,-0.30016 -12.84038,4.68877 -15.00268,7.29418 -1.77469,2.13837 -0.43716,4.86691 2.01483,4.11022 1.09332,-0.3374 2.88236,-0.8895 3.97565,-1.22689 1.74798,-0.53943 1.50669,0.42793 -2,8.01813 -4.15601,8.99567 -4.81007,12.37304 -2.7878,14.39531 1.60174,1.60174 2.21023,1.51863 4.02673,-0.55 z M 106.8035,340.98054 c 1.03478,-1.1107 3.41481,-4.73823 5.28896,-8.06118 1.87415,-3.32295 4.48336,-7.70169 5.79825,-9.73054 1.31489,-2.02885 5.92739,-10.61933 10.25,-19.08994 C 135.43803,289.799 137.42454,284 135.02579,284 c -1.10682,0 -10.96157,14.48533 -15.98766,23.5 -1.83991,3.3 -4.25207,7.575 -5.36037,9.5 -6.23763,10.83409 -9.64686,17.37636 -10.66916,20.47395 -1.77778,5.38671 0.27562,7.2841 3.7949,3.50659 z M 204.20833,312.75 c 4.4075,-5.85695 11.87304,-21.78219 10.96872,-23.39812 -0.67004,-1.19729 -1.32587,-0.83766 -3.33518,1.82888 -3.76126,4.99155 -11.26359,16.94121 -12.64708,20.14418 -2.3465,5.43249 1.23233,6.44975 5.01354,1.42506 z M 640.70787,294.5 c 12.7129,-22.33852 18.06086,-34.1516 16.25424,-35.90392 -2.14758,-2.08303 -8.46606,6.93813 -17.81036,25.42859 C 634.11829,293.98488 630,303.15396 630,304.4004 c 0,6.15094 3.31991,3.08139 10.70787,-9.9004 z m -109.26778,8.5662 c 2.1822,-2.4113 4.51603,-9.01699 3.82343,-10.82186 -0.88634,-2.30977 -4.58875,-0.90208 -6.97916,2.65354 -4.47104,6.65047 -1.7783,13.62036 3.15573,8.16832 z M 547.70996,272.75 c 0.52516,-0.6875 1.54777,-2.825 2.27245,-4.75 0.72468,-1.925 1.9251,-4.9625 2.6676,-6.75 0.74249,-1.7875 1.95749,-4.7125 2.69998,-6.5 3.24234,-7.80568 3.79491,-9.69492 3.482,-11.90506 -0.47814,-3.37723 -3.30037,-3.25947 -10.83199,0.45198 -4.94944,2.43899 -6.58086,3.77514 -6.83896,5.6012 -0.32554,2.30315 -0.15879,2.37342 4.21079,1.7745 l 4.54974,-0.62361 -2.63628,6.2255 c -1.44995,3.42402 -2.95535,6.67549 -3.34531,7.22549 -1.55381,2.19145 -2.09645,7.60654 -0.90599,9.04096 1.48505,1.78937 3.40328,1.87512 4.67597,0.20904 z m -357.78687,-8.51536 c 1.9673,-1.55921 4.81441,-5.25556 6.32691,-8.2141 4.43229,-8.66984 3.36121,-15.59139 -2.98638,-19.29859 -2.73911,-1.59972 -3.75834,-1.71378 -6.68452,-0.74806 -8.92869,2.94674 -16.43597,17.64624 -13.09542,25.64129 2.91078,6.96649 9.60816,8.03365 16.43941,2.61946 z m -9.744,-4.51885 c -2.44239,-2.94289 2.32941,-14.04928 7.17743,-16.70555 2.5405,-1.39195 2.86777,-1.36051 4.17841,0.40145 1.60495,2.15761 1.13885,5.17601 -1.66344,10.77223 -2.85425,5.69998 -7.39978,8.29431 -9.6924,5.53187 z m -27.97593,-34.3856 c 6.22721,-5.91415 9.40003,-16.23447 6.39908,-20.81449 -0.90659,-1.38363 -2.29061,-2.5157 -3.0756,-2.5157 -0.78499,0 -1.82087,-0.70334 -2.30194,-1.56298 -0.62123,-1.11006 -1.64498,-1.36964 -3.53291,-0.8958 -5.66389,1.42154 -12.46312,11.59796 -13.45142,20.13275 -0.41142,3.55288 -0.082,4.57536 2.21417,6.87147 2.30184,2.30185 3.28941,2.61811 6.73306,2.15622 2.53165,-0.33956 5.1461,-1.59599 7.01556,-3.37147 z M 143,220.26115 C 143,215.09983 148.41753,206 151.4903,206 c 1.5103,0 1.6942,0.67077 1.25417,4.5747 C 151.86601,218.36836 143,227.18159 143,220.26115 Z M 609.22442,227.25 c 4.85999,-5.54288 6.33846,-15.34209 2.42671,-16.08405 -4.16762,-0.79049 -11.53429,10.17913 -10.25603,15.27213 0.50025,1.99316 1.27038,2.56192 3.46896,2.56192 1.55428,0 3.51644,-0.7875 4.36036,-1.75 z m -38.96636,-6 c 4.02644,-6.12293 11.28077,-18.48905 13.05251,-22.25 0.38864,-0.825 1.67736,-3.075 2.86381,-5 C 590.90435,186.32567 601,165.45741 601,163.35461 c 0,-3.38575 -1.42324,-3.57977 -4.1742,-0.56905 C 594.12614,165.74013 587,176.4227 587,177.5151 c 0,0.37189 -0.8469,1.87063 -1.882,3.33053 -2.26507,3.19466 -10.41646,18.24174 -16.6558,30.74584 -7.99615,16.02489 -6.76057,22.67013 1.79586,9.65853 z M 210.31619,214.1701 C 236.96993,171.12334 276,102.04604 276,97.919715 c 0,-0.505843 -0.5625,-0.902637 -1.25,-0.881764 -1.46723,0.04455 -3.65158,3.115229 -14.20011,19.962049 -13.00442,20.76906 -15.12843,24.20109 -19.67869,31.79731 -6.13995,10.25005 -5.9092,9.85 -10.78766,18.70269 -2.42471,4.4 -5.27959,9.25647 -6.34417,10.79216 -4.31262,6.22108 -21.62833,41.83364 -21.06029,43.31391 0.52091,1.35748 0.84953,1.30977 2.52605,-0.36676 1.05998,-1.05998 3.35996,-4.24113 5.11106,-7.06921 z m 304.18724,2.69275 c 4.59459,-4.03411 8.21482,-10.24678 9.06321,-15.5534 0.53219,-3.3288 0.23019,-4.90212 -1.46857,-7.65078 -1.1762,-1.90312 -2.84124,-3.72987 -3.70009,-4.05945 -5.64225,-2.16513 -12.1747,1.25183 -16.84987,8.81374 -2.52762,4.08833 -3.01687,5.91506 -3.03112,11.3174 -0.0147,5.57449 0.30098,6.69992 2.34379,8.3559 3.7435,3.03461 9.36743,2.53028 13.64265,-1.22341 z m -9.5347,-4.92128 c -0.58367,-1.0906 -0.7899,-2.42191 -0.45828,-2.95848 0.33162,-0.53656 0.78916,-1.94256 1.01677,-3.12444 1.01243,-5.25713 7.94854,-11.91871 10.66308,-10.24104 1.962,1.21259 0.19341,9.34043 -2.85091,13.10179 -3.79436,4.68805 -6.93843,5.89832 -8.37066,3.22217 z M 476.70871,188.75 c 4.82524,-5.2771 6.68102,-12.35174 3.85521,-14.69695 -2.5375,-2.10594 -6.57863,1.22151 -9.83496,8.09808 -2.12587,4.4893 -2.14324,5.29173 -0.15753,7.27744 2.1471,2.14711 3.71174,1.97411 6.13728,-0.67857 z M 287.23212,177.44879 c 1.60867,-4.37183 3.31925,-8.84879 3.80128,-9.94879 1.66801,-3.80638 3.6704,-12.00513 3.23606,-13.25 -0.66416,-1.90358 -3.83612,-1.50347 -9.0527,1.14191 -6.086,3.08628 -9.01956,6.20529 -7.37917,7.84568 0.89996,0.89996 1.91879,0.91538 4.17638,0.0632 3.80586,-1.43655 3.8069,-0.898 0.0168,8.69917 -1.62905,4.125 -2.9774,8.49014 -2.99633,9.70031 -0.0336,2.14682 2.56296,4.50388 4.36921,3.96624 0.497,-0.14793 2.21982,-3.84593 3.82849,-8.21776 z m -91.96151,2.00101 C 199.2564,173.83382 210,153.40207 210,151.43802 c 0,-2.29666 -1.44896,-1.69042 -4.82375,2.01821 C 202.23221,156.69152 195,167.30828 195,168.3948 c 0,0.26999 -0.99991,2.1856 -2.22202,4.25692 -1.22211,2.07133 -2.33904,4.23455 -2.48207,4.80716 -1.50112,6.0099 -1.49234,6.54112 0.10812,6.54112 0.90045,0 3.09041,-2.04759 4.86658,-4.5502 z m 336.16719,-5.32953 c 0.81905,-1.58385 2.12297,-4.62135 2.89761,-6.75 0.77464,-2.12865 3.04107,-7.833 5.03651,-12.67634 4.20084,-10.19628 4.21809,-10.3078 1.79448,-11.60487 -1.40204,-0.75035 -3.46147,-0.15569 -8.75,2.52656 -10.43416,5.29202 -12.29839,9.19361 -3.78265,7.91659 l 4.39728,-0.65941 -2.63158,5.8136 c -1.44738,3.19748 -3.3547,7.99627 -4.23849,10.66397 -1.53347,4.62871 -1.51943,4.91434 0.3072,6.25 2.68616,1.96418 3.28,1.78732 4.96964,-1.4801 z M 419.16011,164.11342 C 430.77368,156.74831 431.04348,140 419.54855,140 c -7.22797,0 -13.56749,8.13782 -13.53324,17.37212 0.0184,4.95597 0.6231,6.0377 4.50752,8.06316 3.79653,1.97964 3.3152,2.0533 8.63728,-1.32186 z m -6.10839,-4.08146 c -2.13734,-1.32095 -0.24567,-8.74147 3.24064,-12.71215 2.87435,-3.27371 3.18029,-3.39391 4.39843,-1.728 1.79996,2.4616 1.64269,4.8424 -0.60763,9.19803 -2.16383,4.18824 -5.14297,6.40926 -7.03144,5.24212 z M 342.25,146.30253 C 345.46961,142.05898 345.92293,138 343.17726,138 c -1.15198,0 -2.62398,1.60431 -4,4.35953 -3.94293,7.89495 -1.9074,10.50698 3.07274,3.943 z M 505.57886,136.5 c 0.77662,-1.65 2.37527,-4.575 3.55256,-6.5 3.82467,-6.25376 8.08076,-17.18782 7.07993,-18.18865 -1.13248,-1.13248 -5.28168,3.98295 -10.6975,13.18865 -2.10321,3.575 -4.58318,7.625 -5.51103,9 -2.45063,3.63161 -4.29102,9.81464 -3.50969,11.79124 0.56521,1.42986 1.24657,1.05589 4.17458,-2.29124 1.92452,-2.2 4.13454,-5.35 4.91115,-7 z m -197.33807,-3.08016 c 5.1113,-7.31009 17.51846,-27.87757 22.2716,-36.91984 6.22334,-11.839161 7.72335,-16.059464 6.16705,-17.35108 -2.35775,-1.956754 -2.82834,-1.296384 -21.6289,30.35108 -7.12957,12.0014 -13.54362,26.67359 -12.23334,27.98387 1.06203,1.06202 2.69494,-0.16156 5.42359,-4.06403 z M 434.33953,128.75 c 4.32822,-5.76194 10.84139,-16.96325 16.71713,-28.75 6.73476,-13.509953 7.45461,-15.565984 5.80654,-16.584546 -1.30197,-0.804661 -5.49916,3.600177 -7.95886,8.352598 -0.77238,1.492348 -3.02119,5.192542 -4.99734,8.222654 -1.97614,3.030114 -5.91364,10.119704 -8.75,15.754654 -6.57771,13.06786 -7.09943,21.3675 -0.81747,13.00464 z m -57.43516,-23.35207 c 0.77241,-1.59386 1.76575,-3.13764 2.20742,-3.43063 0.44167,-0.29298 0.9347,-2.54298 1.09562,-4.999997 0.2633,-4.020057 0.0591,-4.500377 -2.03988,-4.797661 -6.19283,-0.877118 -13.62507,14.771248 -8.41753,17.722878 2.26838,1.28571 5.26569,-0.59729 7.15437,-4.49459 z"
         id="path2" />
    </g>
  </g>
</svg>
